<mxfile modified="2023-11-16T11:05:36.914Z" host="Electron" agent="Mozilla/5.0 (X11; Linux x86_64) AppleWebKit/537.36 (KHTML, like Gecko) draw.io/22.0.3 Chrome/114.0.5735.289 Electron/25.8.4 Safari/537.36" etag="8Sg9ga06NzcD1zCXYSLC" version="22.0.3" type="device">
  <diagram id="d1ab7348-05c3-a1e3-ca4d-12c340fd6b49" name="Page-1">
    <mxGraphModel dx="880" dy="531" grid="1" gridSize="10" guides="1" tooltips="1" connect="1" arrows="1" fold="1" page="1" pageScale="1" pageWidth="1169" pageHeight="827" background="none" math="0" shadow="0">
      <root>
        <mxCell id="0" />
        <mxCell id="1" parent="0" />
        <mxCell id="e0zx1OXjUzG2xtG4G9Sb-209" value="&lt;div style=&quot;font-size: 20px;&quot;&gt;&lt;span style=&quot;background-color: initial; font-size: 20px;&quot;&gt;&lt;b&gt;&lt;font color=&quot;#262626&quot;&gt;Cryptos &amp;amp;&lt;/font&gt;&lt;/b&gt;&lt;/span&gt;&lt;/div&gt;&lt;div style=&quot;font-size: 20px;&quot;&gt;&lt;span style=&quot;background-color: initial; font-size: 20px;&quot;&gt;&lt;b&gt;&lt;font color=&quot;#262626&quot;&gt;stocks market&amp;nbsp;&lt;/font&gt;&lt;/b&gt;&lt;/span&gt;&lt;/div&gt;" style="sketch=0;points=[[0,0,0],[0.25,0,0],[0.5,0,0],[0.75,0,0],[1,0,0],[1,0.25,0],[1,0.5,0],[1,0.75,0],[1,1,0],[0.75,1,0],[0.5,1,0],[0.25,1,0],[0,1,0],[0,0.75,0],[0,0.5,0],[0,0.25,0]];rounded=1;absoluteArcSize=1;arcSize=2;html=1;strokeColor=#F4F4F4;gradientColor=none;shadow=0;dashed=0;fontSize=20;fontColor=#171717;align=center;verticalAlign=bottom;spacing=10;spacingTop=-4;whiteSpace=wrap;fillColor=#FFF8E1;container=1;fontStyle=0" parent="1" vertex="1">
          <mxGeometry x="100" y="92.5" width="160" height="205" as="geometry" />
        </mxCell>
        <mxCell id="e0zx1OXjUzG2xtG4G9Sb-208" value="" style="shape=image;verticalLabelPosition=bottom;labelBackgroundColor=default;verticalAlign=top;aspect=fixed;imageAspect=0;image=https://uxwing.com/wp-content/themes/uxwing/download/web-app-development/api-icon.png;fillOpacity=80;" parent="e0zx1OXjUzG2xtG4G9Sb-209" vertex="1">
          <mxGeometry x="22.59" y="36.21" width="110.57" height="83.79" as="geometry" />
        </mxCell>
        <mxCell id="2" value="" style="fillColor=#F6F6F6;strokeColor=#4f4f4f;shadow=0;gradientColor=none;fontSize=14;align=left;spacing=10;fontColor=#717171;9E9E9E;verticalAlign=top;spacingTop=-4;fontStyle=0;spacingLeft=40;html=1;" parent="1" vertex="1">
          <mxGeometry x="337.5" y="28" width="1000" height="400" as="geometry" />
        </mxCell>
        <mxCell id="e0zx1OXjUzG2xtG4G9Sb-241" value="" style="shape=image;verticalLabelPosition=bottom;labelBackgroundColor=default;verticalAlign=top;aspect=fixed;imageAspect=0;image=data:image/svg+xml,PHN2ZyB4bWxuczp4bGluaz0iaHR0cDovL3d3dy53My5vcmcvMTk5OS94bGluayIgeG1sbnM9Imh0dHA6Ly93d3cudzMub3JnLzIwMDAvc3ZnIiB4bWw6c3BhY2U9InByZXNlcnZlIiBzdHlsZT0iZW5hYmxlLWJhY2tncm91bmQ6bmV3IDAgMCAxMjAwIDMwOTsiIHZpZXdCb3g9IjAgMCAxMjAwIDMwOSIgeT0iMHB4IiB4PSIwcHgiIGlkPSJMYXllcl8xIiB2ZXJzaW9uPSIxLjEiPiYjeGE7PHN0eWxlIHR5cGU9InRleHQvY3NzIj4mI3hhOwkuc3Qwe2ZpbGw6IzFENjNFRDt9JiN4YTs8L3N0eWxlPiYjeGE7PHBhdGggZD0iTTM3OS42LDExMS43Yy0yLjMtMTYuNy0xMS41LTMxLjItMjguMS00NC4zbC05LjYtNi41bC02LjQsOS43Yy04LjIsMTIuNS0xMi4zLDI5LjktMTEsNDYuNiYjMTA7JiM5O2MwLjYsNS44LDIuNSwxNi40LDguNCwyNS41Yy01LjksMy4zLTE3LjYsNy43LTMzLjIsNy40SDEuN2wtMC42LDMuNWMtMi44LDE2LjctMi44LDY5LDMwLjcsMTA5LjFjMjUuNSwzMC41LDYzLjYsNDYsMTEzLjQsNDYmIzEwOyYjOTtjMTA4LDAsMTg3LjgtNTAuMywyMjUuMy0xNDEuOWMxNC43LDAuMyw0Ni40LDAuMSw2Mi43LTMxLjRjMC40LTAuNywxLjQtMi42LDQuMi04LjZsMS42LTMuM2wtOS4xLTYuMiYjMTA7JiM5O0M0MTkuOSwxMTAuOCwzOTcuMiwxMDguMywzNzkuNiwxMTEuN0wzNzkuNiwxMTEuN3ogTTI0MCwwaC00NS4zdjQxLjdIMjQwVjB6IE0yNDAsNTAuMWgtNDUuM3Y0MS43SDI0MFY1MC4xeiBNMTg2LjQsNTAuMWgtNDUuMyYjMTA7JiM5O3Y0MS43aDQ1LjNWNTAuMXogTTEzMi45LDUwLjFIODcuNnY0MS43aDQ1LjNWNTAuMXogTTc5LjMsMTAwLjJIMzR2NDEuN2g0NS4zVjEwMC4yeiBNMTMyLjksMTAwLjJIODcuNnY0MS43aDQ1LjNWMTAwLjJ6JiMxMDsmIzk7IE0xODYuNCwxMDAuMmgtNDUuM3Y0MS43aDQ1LjNWMTAwLjJ6IE0yNDAsMTAwLjJoLTQ1LjN2NDEuN0gyNDBWMTAwLjJ6IE0yOTMuNiwxMDAuMmgtNDUuM3Y0MS43aDQ1LjNWMTAwLjJ6IE01NjksOTAuOCYjMTA7JiM5O2MtMy4zLDAtNi4xLDEuMS04LjIsMy4zYy0yLjIsMi4yLTMuMyw1LjEtMy4zLDguNFYxNTljLTExLjItOS4zLTI0LjEtMTMuOS0zOC45LTEzLjljLTE3LjEsMC0zMS43LDYuMi00My44LDE4LjYmIzEwOyYjOTtjLTEyLjEsMTIuNC0xOC4xLDI3LjMtMTguMSw0NC44czYuMSwzMi40LDE4LjEsNDQuOGMxMi4xLDEyLjQsMjYuNywxOC42LDQzLjgsMTguNnMzMS42LTYuMiw0My44LTE4LjYmIzEwOyYjOTtjMTIuMS0xMi4yLDE4LjEtMjcuMiwxOC4xLTQ0LjhWMTAyLjZjMC0zLjQtMS4xLTYuMi0zLjQtOC40QzU3NSw5MS45LDU3Mi4zLDkwLjgsNTY5LDkwLjh6IE01NTQuNSwyMjMuOWMtMiw0LjgtNC44LDktOC4zLDEyLjYmIzEwOyYjOTtzLTcuNiw2LjUtMTIuMyw4LjZzLTkuOCwzLjItMTUuMiwzLjJzLTEwLjUtMS0xNS4zLTMuMmMtNC43LTIuMS04LjgtNS0xMi4zLTguNnMtNi4yLTcuOC04LjItMTIuNnMtMy0xMC0zLTE1LjRzMS0xMC42LDMtMTUuNCYjMTA7JiM5O2MyLTQuOCw0LjgtOSw4LjItMTIuNmMzLjUtMy42LDcuNi02LjQsMTIuMy04LjZjNC43LTIuMSw5LjgtMy4yLDE1LjMtMy4yczEwLjQsMSwxNS4yLDMuMmM0LjcsMi4xLDguOCw1LDEyLjMsOC42czYuMyw3LjgsOC4zLDEyLjYmIzEwOyYjOTtzMyw5LjksMywxNS4zQzU1Ny41LDIxMy45LDU1Ni41LDIxOSw1NTQuNSwyMjMuOUw1NTQuNSwyMjMuOXogTTEwNzUuNiwxNjMuN2MtMTIuMi0xMi40LTI2LjktMTguNi00My44LTE4LjYmIzEwOyYjOTtjLTE3LDAtMzEuNyw2LjItNDMuOCwxOC42Yy0xMi4xLDEyLjQtMTguMSwyNy4zLTE4LjEsNDQuOHM2LjEsMzIuNCwxOC4xLDQ0LjhjMTIuMSwxMi40LDI2LjcsMTguNiw0My44LDE4LjYmIzEwOyYjOTtjMTUuNiwwLDI5LTUuMSw0MC41LTE1LjRjMi4yLTIuMywzLjMtNS4yLDMuMy04LjVzLTEuMS02LjItMy4zLTguNGMtMi4yLTIuMi00LjktMy4zLTguMi0zLjNjLTIuOSwwLjEtNS40LDEtNy42LDMmIzEwOyYjOTtjLTMuNSwzLTcuMiw1LjMtMTEuMyw2LjhjLTQuMSwxLjUtOC41LDIuMy0xMy40LDIuM2MtNC4zLDAtOC40LTAuNy0xMi4zLTJjLTMuOS0xLjQtNy42LTMuMy0xMC44LTUuN2MtMy4zLTIuNS02LjEtNS40LTguNi04LjgmIzEwOyYjOTtjLTIuNC0zLjQtNC4zLTcuMi01LjUtMTEuNGg4Ny42YzMuMiwwLDYtMS4xLDguMi0zLjNjMi4zLTIuMiwzLjQtNS4xLDMuNC04LjRjMC04LjgtMS41LTE2LjktNC41LTI0LjQmIzEwOyYjOTtDMTA4Ni4yLDE3Ni43LDEwODEuNywxNjkuOSwxMDc1LjYsMTYzLjdMMTA3NS42LDE2My43eiBNOTk0LjQsMTk2LjhjMS4yLTQuMSwzLTcuOSw1LjQtMTEuNGMyLjQtMy40LDUuMy02LjQsOC42LTguOCYjMTA7JiM5O2MzLjMtMi41LDctNC4zLDExLTUuN3M4LjEtMiwxMi4zLTJjNC4yLDAsOC4zLDAuNywxMi4yLDJjNCwxLjQsNy42LDMuMywxMC44LDUuN2MzLjMsMi41LDYuMiw1LjQsOC42LDguOGMyLjUsMy40LDQuMyw3LjIsNS42LDExLjQmIzEwOyYjOTtIOTk0LjRMOTk0LjQsMTk2Ljh6IE0xMTk2LjksMTUzLjFjLTIuMS0yLTQuNy0zLjYtNy44LTQuOGMtMy4xLTEuMi02LjYtMi0xMC4zLTIuNGMtMy43LTAuNS03LjItMC43LTEwLjUtMC43JiMxMDsmIzk7Yy03LjQsMC0xNC4zLDEuMi0yMC44LDMuNnMtMTIuNSw1LjktMTgsMTAuNFYxNTdjMC0zLjMtMS4xLTYtMy40LTguM3MtNC45LTMuNS04LjEtMy41cy02LDEuMi04LjIsMy41Yy0yLjMsMi4zLTMuNCw1LjEtMy40LDguMyYjMTA7JiM5O3YxMDMuMmMwLDMuMywxLjEsNiwzLjQsOC4zczUsMy41LDguMiwzLjVzNS45LTEuMiw4LjEtMy41YzIuMy0yLjMsMy40LTUuMSwzLjQtOC4zdi01MS42YzAtNS41LDEtMTAuNywzLTE1LjVzNC44LTksOC4zLTEyLjYmIzEwOyYjOTtzNy42LTYuNCwxMi4zLTguNWM0LjctMi4xLDkuOC0zLjEsMTUuMi0zLjFjNS40LDAsMTAuNSwxLDE1LjIsMi44YzEuOCwwLjgsMy41LDEuMyw0LjksMS4zYzEuNiwwLDMuMS0wLjMsNC41LTAuOSYjMTA7JiM5O2MxLjQtMC42LDIuNi0xLjUsMy43LTIuNWMxLTEuMSwxLjktMi4zLDIuNS0zLjhjMC42LTEuNCwwLjktMywwLjktNC42QzEyMDAsMTU3LjgsMTE5OSwxNTUuMSwxMTk2LjksMTUzLjFMMTE5Ni45LDE1My4xeiYjMTA7JiM5OyBNNjk5LjYsMTYzLjdjLTEyLjItMTIuNC0yNi45LTE4LjYtNDMuOC0xOC42cy0zMS43LDYuMi00My44LDE4LjZjLTEyLjEsMTIuNC0xOC4xLDI3LjMtMTguMSw0NC44czYuMSwzMi40LDE4LjEsNDQuOCYjMTA7JiM5O2MxMi4xLDEyLjQsMjYuNywxOC42LDQzLjgsMTguNnMzMS42LTYuMiw0My44LTE4LjZjMTIuMS0xMi4yLDE4LjEtMjcuMiwxOC4xLTQ0LjhjLTAuMS04LjgtMS42LTE2LjktNC42LTI0LjMmIzEwOyYjOTtDNzEwLjEsMTc2LjgsNzA1LjYsMTY5LjksNjk5LjYsMTYzLjd6IE02OTEuNiwyMjMuOWMtMiw0LjgtNC44LDktOC4zLDEyLjZzLTcuNiw2LjUtMTIuMyw4LjZzLTkuOCwzLjItMTUuMiwzLjJzLTEwLjUtMS0xNS4zLTMuMiYjMTA7JiM5O2MtNC43LTIuMS04LjgtNS0xMi4zLTguNnMtNi4yLTcuOC04LjItMTIuNnMtMy0xMC0zLTE1LjRzMS0xMC42LDMtMTUuNGMyLTQuOCw0LjgtOSw4LjItMTIuNmMzLjUtMy42LDcuNi02LjQsMTIuMy04LjYmIzEwOyYjOTtjNC43LTIuMSw5LjgtMy4yLDE1LjMtMy4yczEwLjQsMSwxNS4yLDMuMmM0LjcsMi4xLDguOCw1LDEyLjMsOC42czYuMyw3LjgsOC4zLDEyLjZzMyw5LjksMywxNS4zJiMxMDsmIzk7QzY5NC42LDIxMy45LDY5My42LDIxOSw2OTEuNiwyMjMuOUw2OTEuNiwyMjMuOXogTTk1Ny4yLDE1Ni45YzAtMS42LTAuMy0zLjEtMC45LTQuNWMtMC42LTEuNC0xLjQtMi43LTIuNS0zLjgmIzEwOyYjOTtjLTEtMS4xLTIuMy0yLTMuNy0yLjVjLTEuNC0wLjYtMi45LTAuOS00LjUtMC45Yy0yLjMsMC00LjQsMC42LTYuMiwxLjhsLTY2LjIsNDR2LTg4LjNjMC0zLjMtMS4xLTYuMS0zLjQtOC40cy00LjktMy41LTguMS0zLjUmIzEwOyYjOTtzLTYsMS4yLTguMiwzLjVjLTIuMywyLjMtMy40LDUuMS0zLjQsOC40VjI2MGMwLDMuMywxLjEsNi4xLDMuNCw4LjRjMi4zLDIuMyw1LDMuNSw4LjIsMy41czUuOS0xLjIsOC4xLTMuNSYjMTA7JiM5O2MyLjMtMi4zLDMuNC01LjEsMy40LTguNHYtNDAuOWwxMy41LTkuMWw1MS4xLDU4LjdjMi4xLDIsNC43LDMsNy43LDNjMS42LDAsMy4xLTAuMyw0LjUtMC45czIuNi0xLjUsMy43LTIuNWMxLTEuMSwxLjktMi4zLDIuNS0zLjgmIzEwOyYjOTtjMC42LTEuNCwwLjktMywwLjktNC41YzAtMy4xLTEuMS01LjgtMy4yLTguM0w5MDYuNSwxOTdsNDYuNC0zMC44Qzk1NS44LDE2NC4yLDk1Ny4yLDE2MS4xLDk1Ny4yLDE1Ni45TDk1Ny4yLDE1Ni45eiBNNzY1LjEsMTgwLjQmIzEwOyYjOTtjMy41LTMuNiw3LjctNi40LDEyLjQtOC41czkuOC0zLjEsMTUuMi0zLjFjNC45LDAsOS40LDAuOCwxMy41LDIuNXM4LjEsNC4xLDExLjgsNy4zYzIuMiwxLjgsNC43LDIuNyw3LjUsMi43JiMxMDsmIzk7YzMuMywwLDYuMS0xLjEsOC4yLTMuNGMyLjItMi4zLDMuMy01LjEsMy4zLTguNXMtMS4zLTYuNS00LTguOWMtMTEuNC0xMC4zLTI0LjgtMTUuNC00MC40LTE1LjRjLTE3LjEsMC0zMS43LDYuMi00My44LDE4LjYmIzEwOyYjOTtjLTEyLjEsMTIuNC0xOC4xLDI3LjMtMTguMSw0NC44czYuMSwzMi40LDE4LjEsNDQuOGMxMi4xLDEyLjQsMjYuNywxOC42LDQzLjgsMTguNmMxNS41LDAsMjktNS4xLDQwLjQtMTUuNCYjMTA7JiM5O2MyLjQtMi41LDMuNy01LjQsMy43LTguN3MtMS4xLTYuMi0zLjMtOC40cy00LjktMy4zLTguMi0zLjNjLTIuOCwwLjEtNS4yLDAuOS03LjMsMi41Yy0zLjcsMy4zLTcuNiw1LjctMTEuNyw3LjMmIzEwOyYjOTtjLTQuMSwxLjYtOC42LDIuNC0xMy41LDIuNGMtNS40LDAtMTAuNC0xLTE1LjItMy4xYy00LjctMi4xLTguOS00LjktMTIuNC04LjVjLTMuNS0zLjUtNi4zLTcuOC04LjQtMTIuNmMtMi00LjgtMy0xMC0zLTE1LjUmIzEwOyYjOTtzMS0xMC43LDMtMTUuNUM3NTguOCwxODguMiw3NjEuNiwxODQuMSw3NjUuMSwxODAuNEw3NjUuMSwxODAuNHoiIGNsYXNzPSJzdDAiLz4mI3hhOzwvc3ZnPg==;" parent="1" vertex="1">
          <mxGeometry x="659.66" y="40" width="310.68" height="80" as="geometry" />
        </mxCell>
        <mxCell id="e0zx1OXjUzG2xtG4G9Sb-447" value="" style="edgeStyle=orthogonalEdgeStyle;fontSize=12;html=1;endArrow=blockThin;endFill=1;strokeWidth=5;endSize=4;startSize=4;dashed=0;strokeColor=#4284F3;exitX=1;exitY=0.5;exitDx=0;exitDy=0;rounded=0;exitPerimeter=0;entryX=0;entryY=0.5;entryDx=0;entryDy=0;" parent="1" source="e0zx1OXjUzG2xtG4G9Sb-209" target="CcuzoNxnnxqacmadoABp-4" edge="1">
          <mxGeometry width="100" relative="1" as="geometry">
            <mxPoint x="582.5" y="205" as="sourcePoint" />
            <mxPoint x="360" y="195" as="targetPoint" />
          </mxGeometry>
        </mxCell>
        <mxCell id="e0zx1OXjUzG2xtG4G9Sb-506" value="" style="edgeStyle=orthogonalEdgeStyle;fontSize=12;html=1;endArrow=blockThin;endFill=1;rounded=0;strokeWidth=1;strokeColor=#4284F3;exitX=0.5;exitY=1;exitDx=0;exitDy=0;entryX=0.5;entryY=0;entryDx=0;entryDy=0;shape=flexArrow;endSize=5;startSize=3;sourcePerimeterSpacing=0;" parent="1" source="2" edge="1">
          <mxGeometry width="100" relative="1" as="geometry">
            <mxPoint x="860" y="570" as="sourcePoint" />
            <mxPoint x="837.5" y="510" as="targetPoint" />
          </mxGeometry>
        </mxCell>
        <mxCell id="e0zx1OXjUzG2xtG4G9Sb-514" value="&lt;b&gt;Google &lt;/b&gt;Cloud Platform" style="fillColor=#F6F6F6;strokeColor=#F4F4F4;shadow=0;gradientColor=none;fontSize=14;align=left;spacing=10;fontColor=#717171;9E9E9E;verticalAlign=top;spacingTop=-4;fontStyle=0;spacingLeft=40;html=1;whiteSpace=wrap;" parent="1" vertex="1">
          <mxGeometry x="567.5" y="510" width="540" height="190" as="geometry" />
        </mxCell>
        <mxCell id="e0zx1OXjUzG2xtG4G9Sb-515" value="" style="shape=mxgraph.gcp2.google_cloud_platform;fillColor=#F6F6F6;strokeColor=none;shadow=0;gradientColor=none;" parent="e0zx1OXjUzG2xtG4G9Sb-514" vertex="1">
          <mxGeometry width="23" height="20" relative="1" as="geometry">
            <mxPoint x="20" y="10" as="offset" />
          </mxGeometry>
        </mxCell>
        <mxCell id="e0zx1OXjUzG2xtG4G9Sb-520" value="Migration from the Docker cluster to GCP Kubernetes Engine " style="shape=image;verticalLabelPosition=bottom;labelBackgroundColor=none;verticalAlign=top;aspect=fixed;imageAspect=0;image=https://res.cloudinary.com/practicaldev/image/fetch/s--fbb8iSGT--/c_imagga_scale,f_auto,fl_progressive,h_900,q_auto,w_1600/https://dev-to-uploads.s3.amazonaws.com/uploads/articles/0r66d726r649w6vfx47j.png;fontColor=#0A0A0A;fontStyle=1;fontSize=17;" parent="e0zx1OXjUzG2xtG4G9Sb-514" vertex="1">
          <mxGeometry x="160.49" y="20" width="219.0232" height="123.2" as="geometry" />
        </mxCell>
        <mxCell id="e0zx1OXjUzG2xtG4G9Sb-516" value="" style="group" parent="1" vertex="1" connectable="0">
          <mxGeometry x="382.5" y="150" width="917.5" height="249.99" as="geometry" />
        </mxCell>
        <mxCell id="e0zx1OXjUzG2xtG4G9Sb-410" value="" style="strokeColor=#dddddd;fillColor=#ffffff;shadow=1;strokeWidth=1;rounded=1;absoluteArcSize=1;arcSize=2;fontSize=10;fontColor=#9E9E9E;align=center;html=1;container=0;" parent="e0zx1OXjUzG2xtG4G9Sb-516" vertex="1">
          <mxGeometry x="724.5" y="0.01999999999998181" width="190" height="90" as="geometry" />
        </mxCell>
        <mxCell id="e0zx1OXjUzG2xtG4G9Sb-414" value="&lt;font style=&quot;font-size: 17px;&quot; color=&quot;#4a4a4a&quot;&gt;KRaft&lt;/font&gt;" style="strokeColor=#dddddd;fillColor=#ffffff;shadow=1;strokeWidth=1;rounded=1;absoluteArcSize=1;arcSize=2;fontSize=10;fontColor=#9E9E9E;align=center;html=1;container=0;" parent="e0zx1OXjUzG2xtG4G9Sb-516" vertex="1">
          <mxGeometry x="244.5" y="100" width="190" height="29.99" as="geometry" />
        </mxCell>
        <mxCell id="e0zx1OXjUzG2xtG4G9Sb-417" value="" style="group" parent="e0zx1OXjUzG2xtG4G9Sb-516" vertex="1" connectable="0">
          <mxGeometry x="244.5" width="190" height="90.00999999999999" as="geometry" />
        </mxCell>
        <mxCell id="e0zx1OXjUzG2xtG4G9Sb-418" value="" style="strokeColor=#dddddd;fillColor=#ffffff;shadow=1;strokeWidth=1;rounded=1;absoluteArcSize=1;arcSize=2;fontSize=10;fontColor=#9E9E9E;align=center;html=1;container=0;" parent="e0zx1OXjUzG2xtG4G9Sb-417" vertex="1">
          <mxGeometry y="0.009999999999990905" width="190" height="90" as="geometry" />
        </mxCell>
        <mxCell id="e0zx1OXjUzG2xtG4G9Sb-419" value="" style="shape=image;verticalLabelPosition=bottom;labelBackgroundColor=default;verticalAlign=top;aspect=fixed;imageAspect=0;image=https://upload.wikimedia.org/wikipedia/commons/thumb/5/53/Apache_kafka_wordtype.svg/2560px-Apache_kafka_wordtype.svg.png;" parent="e0zx1OXjUzG2xtG4G9Sb-417" vertex="1">
          <mxGeometry x="5" width="180" height="90" as="geometry" />
        </mxCell>
        <mxCell id="e0zx1OXjUzG2xtG4G9Sb-422" value="&lt;font style=&quot;font-size: 17px;&quot; color=&quot;#4a4a4a&quot;&gt;spark-master&lt;/font&gt;" style="strokeColor=#dddddd;fillColor=#ffffff;shadow=1;strokeWidth=1;rounded=1;absoluteArcSize=1;arcSize=2;fontSize=10;fontColor=#9E9E9E;align=center;html=1;container=0;" parent="e0zx1OXjUzG2xtG4G9Sb-516" vertex="1">
          <mxGeometry x="484.5" y="100.00999999999999" width="190" height="29.99" as="geometry" />
        </mxCell>
        <mxCell id="e0zx1OXjUzG2xtG4G9Sb-423" value="&lt;font style=&quot;font-size: 17px;&quot; color=&quot;#4a4a4a&quot;&gt;spark-worker&lt;/font&gt;" style="strokeColor=#dddddd;fillColor=#ffffff;shadow=1;strokeWidth=1;rounded=1;absoluteArcSize=1;arcSize=2;fontSize=10;fontColor=#9E9E9E;align=center;html=1;container=0;" parent="e0zx1OXjUzG2xtG4G9Sb-516" vertex="1">
          <mxGeometry x="484.5" y="140.01999999999998" width="190" height="29.99" as="geometry" />
        </mxCell>
        <mxCell id="e0zx1OXjUzG2xtG4G9Sb-424" value="" style="group" parent="e0zx1OXjUzG2xtG4G9Sb-516" vertex="1" connectable="0">
          <mxGeometry x="484.5" width="190" height="90" as="geometry" />
        </mxCell>
        <mxCell id="e0zx1OXjUzG2xtG4G9Sb-425" value="" style="strokeColor=#dddddd;fillColor=#ffffff;shadow=1;strokeWidth=1;rounded=1;absoluteArcSize=1;arcSize=2;fontSize=10;fontColor=#9E9E9E;align=center;html=1;container=0;" parent="e0zx1OXjUzG2xtG4G9Sb-424" vertex="1">
          <mxGeometry width="190" height="90" as="geometry" />
        </mxCell>
        <mxCell id="e0zx1OXjUzG2xtG4G9Sb-426" value="" style="shape=image;verticalLabelPosition=bottom;labelBackgroundColor=default;verticalAlign=top;aspect=fixed;imageAspect=0;image=https://upload.wikimedia.org/wikipedia/commons/thumb/f/f3/Apache_Spark_logo.svg/1200px-Apache_Spark_logo.svg.png;" parent="e0zx1OXjUzG2xtG4G9Sb-424" vertex="1">
          <mxGeometry x="20" y="6.069999999999936" width="150" height="77.88" as="geometry" />
        </mxCell>
        <mxCell id="e0zx1OXjUzG2xtG4G9Sb-428" value="&lt;font color=&quot;#4a4a4a&quot;&gt;&lt;span style=&quot;font-size: 17px;&quot;&gt;cassandra&lt;/span&gt;&lt;/font&gt;" style="strokeColor=#dddddd;fillColor=#ffffff;shadow=1;strokeWidth=1;rounded=1;absoluteArcSize=1;arcSize=2;fontSize=10;fontColor=#9E9E9E;align=center;html=1;container=0;" parent="e0zx1OXjUzG2xtG4G9Sb-516" vertex="1">
          <mxGeometry x="724.5" y="100.00999999999999" width="190" height="29.99" as="geometry" />
        </mxCell>
        <mxCell id="e0zx1OXjUzG2xtG4G9Sb-430" value="" style="edgeStyle=orthogonalEdgeStyle;fontSize=12;html=1;endArrow=blockThin;endFill=1;strokeWidth=5;endSize=4;startSize=4;dashed=0;strokeColor=#4284F3;exitX=1;exitY=0.5;exitDx=0;exitDy=0;entryX=0;entryY=0.5;entryDx=0;entryDy=0;rounded=0;" parent="e0zx1OXjUzG2xtG4G9Sb-516" source="e0zx1OXjUzG2xtG4G9Sb-418" target="e0zx1OXjUzG2xtG4G9Sb-425" edge="1">
          <mxGeometry width="100" relative="1" as="geometry">
            <mxPoint x="354.5" y="-150" as="sourcePoint" />
            <mxPoint x="404.5" y="-150" as="targetPoint" />
          </mxGeometry>
        </mxCell>
        <mxCell id="e0zx1OXjUzG2xtG4G9Sb-431" value="" style="edgeStyle=orthogonalEdgeStyle;fontSize=12;html=1;endArrow=blockThin;endFill=1;strokeWidth=5;endSize=4;startSize=4;dashed=0;strokeColor=#4284F3;exitX=1;exitY=0.5;exitDx=0;exitDy=0;entryX=0;entryY=0.5;entryDx=0;entryDy=0;rounded=0;" parent="e0zx1OXjUzG2xtG4G9Sb-516" source="e0zx1OXjUzG2xtG4G9Sb-425" target="e0zx1OXjUzG2xtG4G9Sb-410" edge="1">
          <mxGeometry width="100" relative="1" as="geometry">
            <mxPoint x="674.5" y="40.710000000000036" as="sourcePoint" />
            <mxPoint x="724.5" y="40.710000000000036" as="targetPoint" />
          </mxGeometry>
        </mxCell>
        <mxCell id="CcuzoNxnnxqacmadoABp-2" value="&lt;font style=&quot;font-size: 17px;&quot; color=&quot;#4a4a4a&quot;&gt;websocket_to_kafka&lt;br&gt;&lt;/font&gt;" style="strokeColor=#dddddd;fillColor=#ffffff;shadow=1;strokeWidth=1;rounded=1;absoluteArcSize=1;arcSize=2;fontSize=10;fontColor=#9E9E9E;align=center;html=1;container=0;" parent="e0zx1OXjUzG2xtG4G9Sb-516" vertex="1">
          <mxGeometry x="12.5" y="100.00999999999999" width="190" height="29.99" as="geometry" />
        </mxCell>
        <mxCell id="CcuzoNxnnxqacmadoABp-3" value="" style="group" parent="e0zx1OXjUzG2xtG4G9Sb-516" vertex="1" connectable="0">
          <mxGeometry x="12.5" width="190" height="116" as="geometry" />
        </mxCell>
        <mxCell id="CcuzoNxnnxqacmadoABp-4" value="" style="strokeColor=#dddddd;fillColor=#ffffff;shadow=1;strokeWidth=1;rounded=1;absoluteArcSize=1;arcSize=2;fontSize=10;fontColor=#9E9E9E;align=center;html=1;container=0;" parent="CcuzoNxnnxqacmadoABp-3" vertex="1">
          <mxGeometry width="190" height="90" as="geometry" />
        </mxCell>
        <mxCell id="S_Jhwh-BiPWEwR4Ev1T7-2" value="" style="shape=image;verticalLabelPosition=bottom;labelBackgroundColor=default;verticalAlign=top;aspect=fixed;imageAspect=0;image=data:image/png,iVBORw0KGgoAAAANSUhEUgAAAHMAAAB+CAYAAAAX3S44AAAABGdBTUEAALGPC/xhBQAAACBjSFJNAAB6JgAAgIQAAPoAAACA6AAAdTAAAOpgAAA6mAAAF3CculE8AAAABmJLR0QA/wD/AP+gvaeTAAATFUlEQVR42u1deZRU1Zn/fbeWXgpaacS2EVRwidIuycEkokeDigcVQUUBUTMzOo4h8TAjx6gxcXIqQ5wobnOCxxmNmRmdqBkaM+O4EBVpVAQXcG9OMorLsDRLC9jQdFfVe/c3f9Re9V7Vq+pXS1t1T/epqvfefa/q/r7l933fve8JhlGbdcfKtoiXE6g5gYIJoJ4AYhyJZoABgC0EmkAESLYAAMg+ghEQ+wmGQBwAeIDEHgi2UusdALZAY5Ni5ONVd8zdimHapGqBu+vFsYZ4p4A4XUOfJuApJAIAY3+pr4zhlv4KEky8Ro8HGDs8vX/8OAD9BN8B8CqgV73q3bgawaCug1kogP+0ss0My1xCrgR4WhIYKwCQAZAVgHGAkv3tz2MrEJ+SfNjb6H9odfDSvXUw87Tp9/2x1cuGW0DeSKIha7BjgGQD6ARIJwKRX7MF+ktSFq9p+tPSatXUioM5895Vl2nKbwCOste6ArTPEkj3BEITK8Limb/hrrlf1cFMaRfd17WAGg8A8KT6Nbe1L7V/2nmyTK+zc5PYSI/MeOPO+Z/XwQQw875V39NaugBIfiCzBzuf1hWt2fkEIrntzx4vpqy586o91QKmqsRFL/j18w1ayyNJIJEYMCvGmRxY5PBvcCAQuTTb6nqZ54lti777hmGyc86cZZ6aBlOFG2cAOMZuQEkYIB8l5XIhpoqW72vhc/mJCmxDECvNRsECkXE9zXM3HxG6pqbN7EV3dy0neJmNX+qlmDNeuPX8tzL7nffLFXMA/g6AvwQhSM6YNIep3+71Ro57fclf76tJzaTwDCJhW1NMFyDU86yABICXbr+gE+Qt+Uxl7pg0N5BFmPrDImHvvJo0szN+9dooEIfZ+KXVK26bvipX/92Htj1IoCcpApmaZu3zrJILKEogLDRb4fKaBFN5whPs/BLBl/L13/CDUyOA7soiKglgM7Wd2fqfMwSBY81OCITmOccs/HVDzYGpwYAdwRDSUbqMGnuYi3Hmi0kzQM4EP22bJcvOOrevlQePrT2fqVWznV/SwFEOadvEQkIQWBCtvCEI7TSblttMT+Tw2tNMD/12fkkRl01+aL0vV/+pwecOA3E2CghByhGTQnhQ7WmmCVu/pMGJo3t3/czevlI8Si8F0JibqABlj0nNyhMgb2Uua01UYm9/Pm3ximbVqH7x4s3T++M9zr3j6TYsfvYBEJc7K4shD3PNVd90IhDZ16tBMA2QylpbokMjIryZIeO6aYuf6xJwlyaOhMnvgWhKHFlACFKamDRDk1HDmunAL40CONsWNCB/CILCQ5DiY9Iazc2WLFdqN9hOQpBMgcgrbBmmvlbBLN4vlTAEyQQNTmLSNF9fe2CaWUzSuV8qf1nMoUDUrGYaZciVljIEsTP1hlmrZrZIv1SREASONLsKwszys9lwY3hdw4DvPDNRSpW4ugISK7Dq6Lb4EUbaoQLATCvEikjsOAEMI9U3XwXir8pSFqtFMFf/eGYvgJXluNYZtzw5BSJlK4vVZmhSBdkmt8tiw14zZ/zqtVGmNzTeozFaA6MpWqychwnTIndpJl7MzG1Zb622mxYf0y9CzY6ylsXiR2+76UgIv+NMndQeaLMHfmOzjF7aV1YwZ9y7+mxoPYfAmWS4Q1FEx3+sFkCypVcY3Z7ulyQ6oAJIguhIcnAkvX/CnEmyP8mo7yRBIZA4Ln8CYEgxqWVZLMWLe3AWKI85MxwERAERv8HtN70C0csRxqMy/v6BkoAZDFJtaFl9jdZYBOoOS1muxHSNgmLS0pbF3LGSPBca58LLm7l90Y1y2P3PuOozL1jy8tEbRr6yUms8ArADZc6VOg9B8gkEShaTuuLXySRzBidCm//DnoV3ugbmzHu6LvF4PB9p8uxK5UpRYLam3DGpa0BCR/9TQSVv5ZYb7hgymDPu7bqaIp0kGyuaK80zXaMwUw9nwuZUIFwDkhmgpmiq8DZu++ElRYN50b2vXCiQx0h6qytXipwCkd/UWwhEsWWxIYOoo//ZJja5PbpPoPlb7riurWAwL773lfEAH41Ry+GbK3WqfcWUxVzVRp2umYl9OnVfK8Lq9oLBNIWPgTykenOlQzX1GHJZzCWSkwEcc4BKALyeny04yjGYF97XdT6IqU5reOXwS+6XxViBECQHybHalwWqBkg/VOSHjsH0QAULr+GV0C9VWVmsZCQnEzi7PqL/kuuv9+UFc9b9q87QWn/XTb+EYvySo1wphxyTlj4EKYjkZGij7b42jBmcnhdMw1CzC63hFU9UhporhbNcqVsC4SQsEKYkhilFkJxssC39Ky7Km84T4aVDXNpWufk7KCAmLVEIYojsTHzQeqS1iYU1cLn2kZnmegYJEclmYwoALrhn5SSQEyrpl1iiEMR+tZiT9KPz5ougJ/lJH1IkyXHCdsfhi+8fb2tmBZ7TS5ErRUlzpSh5TFpA2ztxz6idKZ+PL5rk5GS78ffm6fY+kzy90rlSVllMWiDZeb6zc66ZUtb67hBITg62GwNb6yk5fCZPq0yutNJlMXeYqxCJUhW33HAcyAnp/pA5wpTUMXDYh7QEU80MPtMM4huVyZUWVxaDa2UxulEF+XyfL/JfSWTlyjyZnGJTesntwuPZPWdEFpiREU0dBFXFc6UFlMVYwRDEIpr8+0+W/m0IAPjxwgZAX+cCycknCArNuiN7BoqWjsrmSktbFnOcfiyuvfh+2/YnEp+azb8Bebg7JCePIJAnZvlMksdXNlda9jtrWYJfRNsUCXvnx+9wye0LDoXBX1j6Q6e+Ms1vIncfjROzExfgEcM1V1qBECTe/leJeX73b6/bHTuNIMKHALZaZ3LcTOnFNFs40YrNjnN1adswK4sV4SVXmuDc9x68IXkDxK0LfgrhJVFT6DiT45Dt2p5vfBaYmjjcSQ3v61gWK7B9RsFt7z+4YFl0Hmg8FFnwA4CLbdN2pUnpRTNB2UkDjnSNqKAMudKyhiCyDcC/acGs/d7wCe8/uOA/40CSEG5Z8DOA/xydlVECkpOb7R7C9ZN96WY2+uSBKsiVpkH9GaBXaco7SvNTQO2mikQzLAJIBPG3AATRj0bqxuhr4jhJbHBy50cq3RveeWhPd+fcsOX+7QsOxRY+DOiLS0Nycml3oo9g9PgAsGFvks2CTdWRK0VEa/4OUA+9cc/8N1GFjR8vbEBj+HoYDCbIzlAyOUMVhJBuBrA3VTMNgv4K50r/WytZ9MaSKz+vShC3/egEaD0fCF8L8PAykpzcYHuN5gw2y0EQ/grlSveTvH7d3Vc+aTmIO28+FtRHQWMsgDZAXLo/bvzhB2bKR52+TzgGxERQfxtaj3NuBl0lObn7GDTTkwbAQOxJPQ5CEFeXEPRQzOnrllz9YRqAOxZNBOR6UC6D1sek+cEhr5/LNF2ITzTOCFcI6KH6tlzAuSQIEfNApmb2EmgramlbkWUxENtBOXPdkqs3JYZ5z40HY9BzO4iFAPwlMJYOfFuezEv5SU7uPo3+gXQwNbYC7ChXrpTEAKgvWHv3VZvSzOmgfhaC40rk9VzybRUgOfZ9Qjhmxb4MM8ut5cyVQvB3a5dc9V6SXNx0FrR+GoKDSwciCjSDRZCSUpEc+/NtzpwHpCD4rGy5Uo1Va++64pFkvPbjCVB4CiglkETBE4/harkqvTbJImqd1uf7P6uqycYyhSAE9E2JDMrmRU0AnwFwiOsg5qs4uObbykBy7DSY/CQLTKV0tzakHLnS59fenTSv8KqFADrqJKdIQRC+nZWbDYdHfEJgsORLCDR/kxjyL34yCoJbS0ty7KZi5CkvuTsDPf/kLKd9svbpDVlgrg6ebQB819F0jaLLYjxwUGjUHxNXbQxfAaDVPRB14b6NLs7JKfR8hdQtrQVrHwb6P7KcaknKGyW742O0vb5i6YWhlM2XVA/J0WUkOS4IQhSTlXLqhoglmIC5rpTzdzTkg7RkNWTq0EmOW6urihAEVpztrrAalei8WY9aC0OXbgkB9BeJK45sGAvQXyc5RbNdDcN83mpkFACsun3mVhIflGoJATSSd55SPLxOcpySHEvtflW+uW6rLZgxGJ4v2RICMHmrSc2D3Sc5uowkpwSTs2zPp62syhN2o5QA06PVH8pzx0cl7pMclpHklIHt0koQAAgGEPF35gXz5cWz3gawvhR31qqTnKGk9NKG5HH51uq9ecGMQfZgye6sVYw2shATNBTfVoYZ6I4EIVOwMmvq8i+5Ri0NzF5lPA7iz8WGIPZlMbNOcgojOVYzBV+Qk9dscAxmd3BuGAoL3V5CYJp1kuNcEGwGR8lP841g1k2dXvmH2S8B8rjrZbE6yXEgCHbDI/8uk157p2AwAUD5+q4D8JZrZbE6yXFOcrLbp2iM3OjEtlmCuTp4zaA2jEsJvO9GWaxOcgogOeltD5SaI8e+2Vc0mADw+pL522g2nAngmSGXxSpCcnQZSY52ieSktZ0QnuPEvOYFMwroxfvW3DlvloicB/KjoZTFks0sE8mpZrabx/cI/wM0TpaOte8VEtA5ehTGmjvnrfQ1H/YtrXkeqJcC6Ab5ldOyWHZoom3MYM2SnF4AbwP4OUSdKB1r/0JOenNHodG546cnRIvYWImUB8xMWbSsydMQacw6+Kv0t7rN158ue2Wbk3MPPOofrX/RV85++FfRPBpslxw5PI9df8+efunoDrtR3R3Sc03W3T93AEBhj2wwjdjvcmk5eM4+ekCO/P0e1EirzJNtXZt4nK9uWVutAmCaMZNTjonHPIObLr813W/r5BqhzMVCZuq2jP060/fH9unYK43lctLaTbWnmU7X/g99Bvo5IM9Jtwiw6IeUBUQ25xOLuDn2BKToMZ6PAGyqYTPr8rSKii6z07VqZuEiyakWQagToK/B5KxaZ7PukpziGfKQBaHm2ayRMg7DeZldPTSJ3uFFhuLbimC7hZGcN0Eujy6Z46GAXARw+nCIXytnZquP5JgQ/khO6Ho448s+wA/PnAHhkwBGVjOYFXjmtFmddUvRt1sAGc2qnvTacwCvqfYMUAXAjD9/uKrKVTugd92X81ufuPYpQN6yPcAjrD0wlbGrvMvsHAnCy44qF8QKey6g+mvQZ8qWpGZUjORk7ut19tWxy34kZVvtaea4ge0gv6yyyVnjHX77I2y278VHbZ/WHJginSaA5VU2OWsa3516cE4Lu2yOB9CX2mjsUzK306w9zQQAMR+rsjk5I+EL35XzO5+wbREgx9pA/UQ1sFmp1IX56bzfA5xX+ZReGsFZCh24TU55MUFm2DXVizHGTRDeAcJjMYQvyIlrzq9tMD+f3Q7t+RDk6DKRHKcpuZ0QPgvIFyDbALkQwFE2x/bD9Jwkp7z6WU2DCQDcNPvboLwMcOQwLFdFQJktJ615toaTBimSdPQf3gbNWSB3l2cGumtADgKcX01AVlwzExr6ycXjQb0ckO8Mg3LV5xC5QjrWVN2tx1VVSNQxT28GjLMA8ycA97mf0nOlhSC4G16cXI1AVo1mpmnpxunt8HpuBXktwJElIjmFmVThEzC8v6wWojNswEySo2kHwVDXgrgS4KkVIDnvgngS3si/yglvfYlh0GQ4fEl+fM7RMORiCM+F5lkAR9iDWnTbC+BVAF0Q/ax0rPsEw6zJcPvCXD/Zh+aRk6H1ZAgnA/gmyKMBthQGnGyE8AMA78GU9fhT+3vVkJKrKTBtQe6e0grtHQeFMRCMhGmOAJRAYRDQhFa9gLEDqnGzdKzej3qrt3qrt3qrt3qrt3qrt3qrt3qrt3r7WiUNJBgMSnd3t3R0dCS+e3t7uwBAT09P3t/T3t5OANiwYQPGjh1LAJg0aRI7OzuxbNkyLRJfCl0H05XvNGfOHNXR0SHbtm2TsWPHSmtrq+zevVsAoKWlRfr6+iQQCEh/f7+MGTMG+/fvFwBoamrK+3sCgQB7e3sxYsQIAsCuXbsQCATY39/PlpYW9vX1JZ4S0N7ezp6eHk6aNIkbN25kMBis6tVDFQczGAyqSZMmycaNGwWASgFOBQIBaW5ulsbGRtm1a5dqaGgQAGhoaBC/3y+Dg4Pi8/kEAEKhkABA/LNdi0QijJ2D8ffhcJiNjY0MhUIMhUJsbm7mwMAABwYGGAgE6PF4dF9fH1tbW9nQ0KB7enrY3d3Nzs5OXU3gVgRMktLZ2aniAAJQLS0tYpqmam5uFtM01YEDB4SkigOntVY+n0+8Xq+Ew2Hxer1p7z0ej8TAkqamJsRAEgDw+/0EgIGBAfh8PpqmSb/fzwMHDsDv99MwDBqGwUgkQqWUjgMdDocpIjoUCnHMmDF6cHCQXq9X9/f30+v16t27dxOArhZgpRImdNq0aSoUCqm4BgJQTU1NCfBIqkAgoEKhkDQ1NSmv1ytaa+X1esU0TRUH0e/3K4/HI5FIRDwejyilxDAMaWhoQCQSSfw2n8/HUCgEr9dLrTV9Ph8HBwehtaaIaNM0aZomlVI6DqxSSsfBVUrpOLAej0cPDAxQKaXjGovEpCToYDBYsTtV/D9UPjF4RiPtpgAAACV0RVh0ZGF0ZTpjcmVhdGUAMjAyMi0xMS0wN1QxNjo1OToxMSswMDowMLfFXhAAAAAldEVYdGRhdGU6bW9kaWZ5ADIwMjItMTEtMDdUMTY6NTk6MTErMDA6MDDGmOasAAAAAElFTkSuQmCC;" parent="CcuzoNxnnxqacmadoABp-3" vertex="1">
          <mxGeometry x="60" y="13.299999999999999" width="70" height="76.7" as="geometry" />
        </mxCell>
        <mxCell id="LnXka2nQhwwxLxmS0V3T-3" value="" style="edgeStyle=orthogonalEdgeStyle;fontSize=12;html=1;endArrow=blockThin;endFill=1;strokeWidth=5;endSize=4;startSize=4;dashed=0;strokeColor=#4284F3;exitX=1;exitY=0.5;exitDx=0;exitDy=0;entryX=0;entryY=0.5;entryDx=0;entryDy=0;rounded=0;" parent="e0zx1OXjUzG2xtG4G9Sb-516" source="CcuzoNxnnxqacmadoABp-4" target="e0zx1OXjUzG2xtG4G9Sb-418" edge="1">
          <mxGeometry width="100" relative="1" as="geometry">
            <mxPoint x="445" y="55" as="sourcePoint" />
            <mxPoint x="495" y="55" as="targetPoint" />
          </mxGeometry>
        </mxCell>
        <mxCell id="2LDHlqbD8E4kgoL2S-fC-4" value="" style="shape=image;verticalLabelPosition=bottom;labelBackgroundColor=default;verticalAlign=top;aspect=fixed;imageAspect=0;image=data:image/png,iVBORw0KGgoAAAANSUhEUgAAARcAAAC7CAYAAABPetr1AAAABGdBTUEAALGPC/xhBQAAACBjSFJNAAB6JgAAgIQAAPoAAACA6AAAdTAAAOpgAAA6mAAAF3CculE8AAAABmJLR0QA/wD/AP+gvaeTAAAAB3RJTUUH4QgKADAzLpeexwAAfpRJREFUeNrtfXd4HNX19nvubJFWXbJkFctVbsh9m+QCMr0GCBhIIUAKCSEfoYYSkpAQkkAC/AKEEkINCcX0jk0RbtI2d9nG3bKKJVm9bpl7vj92bUvyNjXbkD3P48f2zsydO7e89/QDxChGMYpRjGIUoxjFKEYxilGMYhSjGMUoRjGKUYxiFKMYnYBEA7nZaDTmWK3W5NiwxShGx5kWLFiQdCL3zWg0aqO932KxZFhNph/GZnVwJGJDEKPhovlz546TUmqP1fuKjcZpJSUlcdHe7/P5sl0ulzeae2fNmpVAwJMavX5pbGZj4BKjYyQqBKMlS5YoPq329LKysqZj0eFZs2YlSCHOLy0t7YmSCzEBqIvm3nMKCvTxev0bxPzy6tWr24fSz5LCwsTjObElJSWaGLjE6LjRrFmzDNFu6FDX9u/bd6uQctsxWoPCoNc/ByE+jOZmq9WaLJjn2my2tmg2Y3Na2ssMeOMSEt4dyrgWFRVN7zQY0o7X3rVYLFO6urpSYuASo+PGtcTFxWVFsUGNer1+fIhrsyTzT8udzjUDea/VajUOatOaTH9mohSbzbYlqhcx30cazRvR7Ifuzs7nJPOpqpS/Ky0t9Q12UK1WazKk/JbD4dg/kOeMRuPYSPeYzWbzOQUF2gjtaCHlpXa7vTEGLjEaCZY4oj7CYrEs9ng8zWF1G8XF8WD+P4fDsbX/tcLCQh2kfBmAAwBHu/GsZvPDPp9vHwA5oE1rNt/BRLcqGs3dUQGRxfJjZnZHIa6JIpPpnwC+D6InXS7X2qEANkv5iOL1/nsgD1kslos0RKdEGLvRCnDWRzt3usPdpxHiN0xki+lcYjQi5O7omGU0GlPC6Ukg5anr169vCdeOVNWHmbkjGBAkxMf/GcBJBFRE06dio3EmpLRBiHdcLtfBAXEsFss9AP4M5o/WrFnjiALEigA84JPyL5H2gcVsfoqJfsTMm3vc7nuHMu5Ws/kOMFetXreuJtpnio3GmcT8nE5VP44AWs9LovfCjpPRaAXRuQ6H47Pjuf40sS34zSVJNEcRIhHA58GuV1VVTRZARtiNYjJdCuafEvC7INfOANFN0aylwsJCXUJ8/K2S6G4CXvL6fKui/Y5zCgr0TWlpDzHzzwF4hVZ7axSiQz5L+RYzvxoBxITFbH6KgB8D6IYQv9y4cWPnYMfcYrGcz8w/I0WZOQBRaJQU4l0QrVm5bl1DSACyWu9mKePK7fYN4bhCKeVrCnDn8V5/MXD5ButSCJjPUo4KAS5C+ny3M7AlzAadCOAZACBgXb8NkQOi/+KQpYloceDf3E8003R3dl4B4G4AUwF4VeDxaE3CJpNpahPRKwDmBN7zcllZ2bYImzVHMH9OQqRyd/c94Ti3/Xv2PMXAjwI/PW63278Y7IAXFRVNZ1X9L0v5a5vD0RbNM+cUFOgbhXgDwHhIeW0YPdM5Usp7mOjCsA0yP0NENGbcuFdht8fAJUbDT8XFxWnS5ysmogIAfzrqhDMa5wP4HoS4OtjzCxcuTPO63R8BSA5wQV/12rxarRCvMzCq16JeWGQ2v8pC/AtAIzPnE/PpPZ2dFwAY2+u+TQ6nc31Umy419eckxB/AnOh/lBuS2ttvDvfcfKNxkqooH4O5AMz/sm3eXBeq/cq9e/8Lom8HfrL7pLw3Wr1REI4lQ/p875EQu+0u1z+iPQCa09KeJeBkEFXYHI7lob7JB7xMRLvsdvsHIQHIbP4JM1/KRNctXbpUPd5rMKZz+QZSSUlJnJSyCMBkAPPNZnPhUTcpygMAtMR81BooKSxM9Pb0vAtgyqHfVFU9vEk1QjzGwPyjDk1gCaT8BFI6ifktANdzb2DxU7zRaBwVhq0fbbFYftWUnv4VET10CFgAsNBofv3Ztm2NYZ5drAqxGswFBLi9Uv42lOjQlJr6EYBDwHLQJ+UtLperNdhYRjPeYH6XiMYJ5lsQpZLaajb/iYHvAgBJeVewexYsWJDkE+IdIkphKX8XCvzMZnMhA48A2DNu3LinT4R1GONcvoHU3d09Cqp6OYgocIL8FcD5hxa9xWS6DczFgduz+3Ms3W73BwCKe/9+wfV3Zfz5jPOyHrvxBzfXVe65dgjC2nQNUZ3VbF5PzOuYqAEAgzkPRHMh5QwK7tT3cX5+/rPl5eXBxCCDRoi7IeWvACj+Y1O87HI4aoNswmyW8kMimhv4yUdS/sHlcq3u31OryfRtNDR8EumA7ursfIGA+QT8tyxKJWqR2XwdA3cExmRlucPxbhDQ0nR1di4loBDADrvT+UpIAPJ43gIQx0S/PxG4lhi4fENJSjlJEF3SWwqwmM0vkhB/Yubzifmw9URvSLhh6YZKpGTmpDs/fqvo0/88Xex1u486rRPjdLs+fuEfqKvcM1wc8zwmmtdHQxRSjcCVilZ7Q/9NM2vWrASDXv9dAHdzX9HLQz09dwcRXYqJeSmAvF5tv6jp6Hi+N0cwZ86cVL1G87hg/nNpRUVHWJAwmf7MwGUgOsBEN0cpQl3MzI8G/usRinJ90EOiq+sxAs4K6Lx+H4JrIel2/xtEkwFss9vtLw7nWjIajQaXy9U1qHMkthW/cUQWs3k5AadF+4A+3gBdXDzamxtPyA/KGjexcsKMOV8I0JY9mze01u3bqWeiRWA+A0BKEDD6t93p/EE/EeTnAB4GoOt1Y6kk+pHD4djda+ObiPlVAE/YHI6/hRVrTKYbQfSw/5V8nd3pfCoKYDmLmN891A9mftTudN5w1H0m021E9EBA3FxvdzjmBm3PZLqLiO4LcH/n25zOD4dr3C0m03dU5uUDdRmIcS7fIPrkAGdBVa1dLQ3GNx/50/e3ry2fNJDn3d1dcHd3nbDfV79v99j6fbuv6ocgwbkcwKvR6X7TW8zzut2PAPh+v+fXCq3217ayskPAQkUWyy8k818B2Nxe778igMTPwPxQ4L/LVOZnI31Hsdl8imR+8zCwAOs6u7vvCtL2D3pxl6rwen8Ror2zJXBvgPP7yOZwDCew3EZEHpfTeXCwbcTA5WtGa/ZzfIfwzSNiS13l3pK6PTuKlj/3SFb1jq3Y/9VmeD3u/+nxyR4/af31jz4nbj7NpEtISLjS63bfB2B0H9aOeRsDfxgzZowN8Ju7FaInmbmEgDYJ3BvOsdBqMv0QzI8DIBDVCUX5hausLKxpvchotErgPQCH4rhaQPTLin5il8Vi+S75gUoAAAnxTvn69auD6I4mqswvE5EAc4dPyhuGawytZvMfAHzLJ6U5pnP5BtMX9ZyoSrXE3dV9duXWDad/+NazBfsq1iv7t1egu6M9NkD9yJCYbH7jr3/cnZ2T5+tobT56fRO5JPOD2vb2z3fv3p1VZLHcJv3OefoAR/PK+AkTvnA4gjsAF5nN32PgaT9GsRRS3lNmt+8M1yez2TyHgY8AJAVEIQngr+c6HKvtfdu+jJlfwCGlNNAuFOXmIJxNBpg/IqLUwDc95nI6dw2DfkWrCPE4gGsgxLkuh8M7lPZiOpcTjF5jVjIOeI2dbe3n7dnourhmz47CvVs2iKrtm+HzemMDNJSTVKfrVDRxz3i62jYHTOmXA4jvdUt1t9s9b+PGjfUhTvRrATx+aPMz8JYhIeG74dI+WI3GhRDiXQBpvXRCz6rMN/c2fReZzd9m4BUAvQMS77I5HH/uIwoVF8erPt9nFLDmMfCVUls7t6yqqnuIwJKiEeJ1AKcT0WvldvsVGKTPT4xzOYFoeROncI96wb7Na3+w+bHnFuza6DLs3bIBvv9xEWe4yefxJPg8npDiAxE9EQJYyGIy/RbAPb1u3gnglnDAYrFYzgPza71EIRDwvpDyz/a1a1t7gdb3GXi2N7AQsMYrZR+F8pIlS5TKPXv+S0SH3AR6NKr68zVDBJaioqLxrKrvw2/yrtIx3zpUYImBy3Gk9/dxmqer7tJtttXXvnH/7+fuXG9T2psOxgbm+FEXKcpD/X8M+JA8B+CIaZ+5QxDdVma37wmjl7kSzM/0BgwGyiTwV8fatYfFKIvJdBuA+/tJES1un++X69at68OqVu7d+wiILjr0fwk8Zlu79ouhfLTZbD6ZVfW1gF5KVYS4a4XNtn84BjQGLsdSf7KHU2vrd1z51dryH7/x11tn7FhvF153z3HrDysaaPRxSExMRFpSIhQCOtrb0dTUBG9/EYwEfLp4SF08pEYHJgFWFDAIxBJS0UGNT4LPkASp0UOoXpDqO/xHSB/I5wVJH4Tqg9LdBk13O4TPDWI+7nOTlpUjbn76zUtbmpVXLyskDwBYrdYzfR7PkwAm9B42MD/sUdUPwgDLjSB6qDdgEPM2KMr9qs9XBvjDD5pTU//BRD8Koqt4cN26da5+ItmdAH7em7PR9/T8aQgcBlksltuI+b5DOEBEr7h9vlcGAVATHQ7HXvTzTI7pXI4BPbti81k7HSt/u2fLxqK9FeuEVEfegVJq4+CLS4DUxkPVxUHq4qFq48B6A6bmZeGUKfk4aXQqWpubYSsvx+bNm9He7lcQs1DgTUiDJykDnqQM+AypkBrdCCGcRFxjFRLq90Db2RzAMYG83FxkZWaipbUVdQcOoLNr5E3lcxefg+nFpzTv2eRa6fj47Uyf11scRHZ6W9FofrpmzZr6IHoLrUaIhwH0cYpjYDuY71G02rfLysq6jUbjWI0QrwIoCgIsH7d3dS3pbUWymEw3kR+sDrV3kL3eCx3r168ZzHfOmTMnVa/VvgDgW71+rtDHx5+zYsWKAXEtRSZTiUq0K1hSrBi4jBA9/d9PR2/bt/meun27vrNn49oUn9czApyHFt74JPjik6HqE+CLS4QalwBVZwArfZlSg1bBaRNHY9G4UUiN06K6uhqrVq7Eli1bwMxgoUFPWg560vPgTskC6NiHnWk6W5BUvQ361gMAgMTERJx/wQU46aST0NHRgfq6OuyurkN9fR0aG+rRfLDhmOqlGFivaDQ/KCsr2xQEWHI0ivIamBf2fYi3Qso/+Yjec7lcrRaL5Spi/juCOP8B2KJh/vZqp/OrflzQw71VR4L5tjKn8++D4VqKjMZ5LMRSABN7/dyoSPndNS7XsoG0ZbFYzmJmX6i8MTFwGWa69d6Hrqk/UPnrfRUbJvV0dgxPo0TwxSXCa0iFz5ACb3wy1PgkqLr4iI9qhcBpE7Nw9uRsGLQK6urq8PFHH2HXLr/l0puYjva8aejJyPdzJyT8Ig8JQAiwUPz/PkRCCbuiSUqAJejQH6ke/g0sQVJCSBVQvSAOHt+n7WhGUtVm6Nr9HsM33XQTEpOSoNVq4ZGMuh4O7FtGW9NB1FbtR11VJeqqKtHaNGJexvvJn8rzoyBi0CVM9AQBmf3AaDOY/0qK8onw+bKkEA8COCMocDE3CODH5U7n4RijIrP5bj7kJHekzSc6u7p+VREhLCEICavZfBOAPwLoHd7hJaI74gyGRwaS1rPIbP42gJPKHY4/IUSgZkznMgy0YMGCpPEz5/2x5UDND1e++/KQs71LbRw8SRnwJqTCa0iDNyH1KE4kAhpBKhoUT8jGT4umIS8tCV6vF6+//jqWffIJJDM6c6agucCK7sxxfZ7UKwKSAa8MH9ir1wi4fXJomCl9ED4fSPWCVC+EzwOh+qDqE+BOyUJi7Xbkd9aAhMCzzzyD7195JRISEhAngB7JICKkZGQiJSMT02b7w5S6OztxoLoStZX7UFu1H80HqsFD1OnEJyThtO/9RDd9/mlJlxZm9dY15CvAXxj4LgXhcgh4UAjRoUr5oBTiChzxX+l/ePQQ859Iqz2UckEUWSx/Z+b+nrkfCUV5YKDAUjxvXoFUlOcBLAhy+XlSlOcHAixWk+mHEjjN6/PdhjAR4DHOZWigYkrLzvtjS13t6V53jzLYdlS9ASwUJEwsRJVIhBqXGB2AaHWQGj2kRgup0YM1OkhFi+TEBNx/1ixcetIYAMDyZcvwwP33o729HT3peWiYdSZ60vOCtpqg02B+fgaW7wpfheO7s8bivxsrR3R8SaqY5GvCXXMy8Zc//hE5ubn40Y9/DFVo0OCODBjtHkZ3dzcO7NuJA7u248C+nXB3D8xqq9FqsfiKH8Fy9kWIT0wGAUtf/9sf/rxu5cffDehWgrGP3fDnFB7TT/wIxrFIJno4Qcq/lLpcBwP+Ji/204eAgXLJfKvT6Vwdbd8PZf8jol+jlzm818vfFVLeUtbLehURWMzmWxk4m1T1ZtvatZvCiWYxzmXgJIotlm8lpWX8pbXp4NSGQUQJs6KBO2kUPClZcKeMhqpPQFLVFsyYOg379rcczclotJDaeEitHlIbB6nRQWrjwESYkJaAnxgnYE52KiQzNtW14oKpuchJikN3VxcefPBBvP/ee1DjEtFg+hba82ciP9WA/a3BN5lPSlw8PTcsuKTH63DpSXkjDi4sFJgm5ePd6ha0jSkEV1Xg7bffxkMPP4wtDZ1oamlFR0szOtrbIOXRSnK9QpDx8Rg3bSbGTZsJZkZTbRVqdu9A7e6v0NJQFwW46NDWUIe1n32ItsZ6VO/YumTf1o1LIjE7AE6O5hMJeJqBx0tdroPFRuNM6c9KN/ko8YrojxPGjy93Op1RjZ3ZbD5NAI8BmBZCf7SCFOXPZU5nVMByyLolASNJeXOH270tks4nBi7RspbFxfGqql6l18f92tPTPaZ1gD4pWq0W3UKHtnGz4UkedZTCVNXFYRTcYKFA1Rn81h19PFRtfEiR6OLpefjH+XOhV460VZzvT4nr8/lw9dVXY9/evejImYz6eRdA1RsCBxZw6oQsfL7naH8xVTLOnZwDvWZDSLHnu7PykaALv3R0ioBXlUP2xPpe8Uzc9tybOGC+CKxosGnjBvzr6afxvZ/fhIR0v4pDSomu9ja0tzajvbUVHa0t8Ho90AqgW+0tfRAycvORkZuPmQtPRXtzIyq3bkLlV5sRyseop6sTto/fGhn9sJQvEPBPyby/yGL5tWS+u58+BAAqJPN9Wo3m82jytJjN5jkE/JmAs0NyhMzroCj3jx071mGz2aIBquxG4A0CckmIW31Srq2oqIhooYiBSwRaNHdupkej+QUz/4KY0z090bPVqRmjMGFaIVL1GnziWI+mqQuOAhWpaCH1CXCn52Nsog40YQq6PZFN1aOFF4+fPxc6JbhVR6PRID0zC86UqWiZaOqTL6WqrRv3nlqIFfsa4JPcj3NhJOo1OH3iaHywvTaoHH3VnPFo6Qm/tr41NRevb6kamq6DfZg3JgM1HT1AAqF+3vkQni689uqrWFhyKuIn+nNgCyGQmJKKxJRU5ASe7WxvQ0tTI6oP1KOltTVoFHVSWgYK55egcH4JWuprUbltM/Z/tRmdba0jvayYmZ+FovwXUk7UEr3AzDOC3LWRme/3qerHTqcz7MKzWCwmMN9GwKUIn2Fyi2T+syLEF1GClVkAbzIgCfidUJSVNpstqgGKgUsIMhqNo7REt3mF+AWYDRylb0pCUjImTp+BgsKZGJWdC6g+/Pupf6BlUpHfEiOUXmbjxMP+Iz69AZW7N+KMU4rw5tbqiO8xyYaQwHKYW5q7GC0Hg9fOqmztxvdmjcUL6/cF5V4unp4bFFxOm5iFiWkJ2HggtP6vZHwmxqUahjwH8/NSsd7lQndCRkCGINSZLoT+82fw+N8fxq8few49Koech4SkZKSPmYDGTjc6WprQ1tiAjuZGBHMLSM3KQWpWDmYuOh0NVfuwa6MTNTu3QfX5hn9xEa0CEE9SPgWighDcXRkR/UPR6T61r1nTElJUSUs7j4FfgjmiGEZ+PdCD0Gg+KSsri3RKCqvZfDMDfySiA6Sqf1SF+Kw8iH9PDFyiJIvFkkHMt4LoF8yciCgsDYqiwfip0zF19jzkjptwKLskAGDvlk2oGT0NPem5fn8UXXzQrGvehDQ4yytwx89yogIXX2XkyqmnTB+P/6wM3tanu+vwrwuNeHNrNdrdvqPA5eyCbCToNOj09L32w3kTAtxCcFtARrwOj58/F1e8PvR6XD9dOAMfvfQUfAmzjnB62jjUzTsPW1e+hD2bXMg5aV7YNvQC0Gp1SM3MRmpmNpgZna3NaKk/gNaDdVB93n77npCVPx5Z+ePh7u7Ens3rsXvTWnQMZyIt5kXkf1nwq8DbDLyq0+lWrl69us9mXrhwYZqvp2cRA5c0+SsBpET3Sv4CivJPn8/3mStCZYL5RuMk1Z9ovYSAHSrzw0Kj+dIxwLCAGLgc0amks6rewsz/D0BSNKCSnpmFaXOMKJgxG/q4+H4nZwrSMrPw2kfL0Djj1GhOMzRrE5HZWY/sxDgc6AgfFrBz+3a43W7o9fqQ97S3huZebVVNiNMouMFagPtWbDtKqZug0+DMSaPxVi+gG5tiwOmT/KZYTQhw+fu5c8AANh0YmmiRpQUWjknFrzfuBJtm97nWnTkeHXnT8el7b+HKCOAiCNAKwCOPgEdiajoSU9ORVzAN7S2NaKk/gLbGBki1L5Dq4xMwzbwAU03zUV+5BzvW2VC7e/uQTdsRQKCLhMhgVS32eTzZRRZLIjOnMZBNgMnrdk/pc3pFJ4K9I4FX9R7PCtu6dSGVhYWFhbokg+FXKnAXgHhiXgchHgdzmc1m2zHQb9HEQKU4Xvp8N0qf7w4EymiExwBC3qSpmG0tRu7Y8X11BAmJyMjKRsbobMTFG9DS2IAtieOj7kt31njY1qzGT0xn4t7SreH7/a1LwwKLlBKvlZYD6TOCXveoEiv3HcTPLZPw4oZ9faxHh/QwF0/P7QMuV80dByWwroNhy9VzxuOcydl4Yf2+IStyr19YCIfdjqb49KDXm6YugL3sv/iuxwNFFz40QScIHnl0j0gIJKdnIjk9EywlWg/Wo/FAFTpbmo6a89HjJmL0uIlob27EDlcZ9lSsHxGRiYgSwHyyEOLkADIc1nUNgrqI+SkAaxRFWbna6QxqHluyZImyb9++7xPzPQyMD7zvSwk8S0ROh92+ZTAv/18GF2E1mb4nfb77AORHHCitDhNnGTF5rhXpaWmI0xxSnGoxanQOMnNyYUjqi02rnWvRlRk9uHRlTcKyZZ/gxR9di8fKd6E5hNI0hd3408+OpIhdv349enp6kJqaio6ODlRWVuJAXR1uuPq7+H/Lt6GpO3g7n+6qxzmTs3HXoum47v0jpZF9gQV9+sTRSNJr0O72Qa8IfH/WkRzYGtFX31OQnoh7T/NXMFm2K7KJ16BV0OUNrseK0yj47qx8PHb/v9E1OnjGTndqNprj0lC9axvGTp8VAVyi2NRCIDUrG6lZ2XB3daKxtgrNdTVHiU1JaRmYd/r5KFxwKnZtcGDHWjvc3Z0n4vreIoF/khCViqJ8GaxWttFoTNEqyg8q9+79BR0pI6MS8IqU8kNJ5HLabF8NtgP/k+BitVoXw58rY17EAdLpUDDHgqnGYugNCX4diwCS0zKQlZOL9MzRIBF89a7aUwdQRtT96knPRVVTG/Zsq8C1pgm4f9XR8yrAePn7iw+bgpubm3H7bbehtZcIxERomH0Obprnw5ofL8Z176/FF3uOrhK6fLcfBJbMGIN/unZjXW3LYZ0L4PfCPXdyDl7dvB8XTsvFKIO+l7hBvYCG8Pj5c2HQKujxqfhyb0Po8RSEHxsn4PPdDdjeeCST3mUzxuB6SwGmZybBq0rEaRTsb2xGT+6ckG115kxFzd7dEcFFM8AwKb0hAbmTpiJnwmS0HqzHwZpKdLW19BOZDDip6BRMMc7H7o1OfOVYg+7OEyMzIAO7BPMLCrBH0em+WL16dXsvQBmrEeI0Bs4m4DxmTuj1aCukfBxCbNDo9eVr1qzZN5R+/E+BS7HROI2F+CtLeX6ke3VxcZg814rJ84qgC+hThKJBenYepk4ciwRDZGvIPp8yoBFmEugcMx3vvP02brjj13jcsesoZesvzBNgzT9SU+zBv/0NtdpU6ONUMBHcablomjIfPel5+EPpVpyUmYyllxfjaedu/PbzLX3c+qvbuvHVwXZMHZWEP50+A+f+exU4oHM5RBdPz8Wrm/cfVuQeVmL3Apc7T54GY64/0dqKfQfRHYIjKcxKxmPnzsV/NlX2AZa7T5mOm4qP+I0pGr+z829/81t8/PiH6IoLrrPsHD0BjbWRzd2C/H/kAGW13txMV1sLGqor0Xqwro9ZW6PVYoqxGJNmm7Fn01psta9Cd0fbcV3nBExiovsBNPo8ngar2dwJv//MRAQ8iulozcxGAP8EUR0LsXLNmjV1Q+3H/wS4HCqaJYFb0Lu0RLBTK96AKcZiFMwxQ6uPO/xbeu5YpI/OhaLRwBAfnQRcrww8zKgtfwaWLXsJ111/PW4smox7vzyiexmfpMNdi4/oUDZt3Ii3vqrDgZOvDK53YcZP312LT68+GdeaJsKUl4afvOPC3pYj6Qs+3V2PqaOSYMlLxzlTsvHh9gN9fF9KJmRi0bhRMOel9QWXADdQnJ+B/2ctOMIN7Tx6TWqFwM8tE3HHomlYse8gnnEd8WpO6WnGjcWTg/Y/PysDv18wCbeFqGzhSc5ER2d0XLuGAM8QFEGG5FSMS06Fp7sLB6sr0VRX00cBrGg0KJhrwcSZ87BrkwtbylacCOJSRuBPOCBys5QvM7CciFqgKKtsNtuwoOM3vpxrkdl8gUaICgB3hgMWjVaHwvmLcd6Pf4np1kXQ6uOgi0/AmCkzMMW0AJl5Y6FoNBAUnXKty+uDlwaO3T3pY9CZlIU3Xn8d11snYUbWET3OH86YDW0vEexvT/4L9XPOCttec48H17zlQI9PxbycNHx+9Sn41rTcXuByBAx+v7gQWiEOi0WHgOH5i81BRA2BlDgtnrxgXh8upr++ZVZ2Cj67+mT8tuQkNHd7cP37a/soexOrtoLDBElec8Z8aD3Bc7mw0KDJE13wpELDE0anizcgt2AaplkWImvsRIh+3tNCo8HkuVac9+MbMGPBYmh0Oj5R9wYDGyTznUy0jDSayvjExGXDBSxAqCjNb4IIVFycl5eb+w8AfwGQGhK5iZA/5SQsvOgK5BVMg1A0iDMkIrdgGvIKpsOQlNzH8icISNBEXqiNXT14fdPewU26okF16bu46MILMX9iDv6zoRJzc9Lwh9MKDwNbeXk5nt7ZiYXzZuJgpwc9vtBOfnWdblS1duP8qTmI0yi4aFouchLjsGLfQVS1duNn5onQKQJp8TrMHJ2CGaOT+yhs4zRKsIWJKRl+jucQVdS34e/l/lAVnSJw+6Kp+Md585CdGAfJjKvecmJrQ1+9RPy+TTh5Sj6ys7OD9r2jvR2Pl66FTx+cC5wp2mGyFEUcU6/0/xkuEoqCxNR0ZOSOgRAa9HS29wFJoWiQOWY8Js02UWtj/a6O5qbEE2a/EdUBeAbMrzJRKwmxzm63r9u7d68cztd848DFaDRq8/Pzb4WUrwMwhbs3M3885l9wOSbPK4JWH4e4hCTkTZ6O3EnTEJ+QFNSdQCMAQxTgcqCjB+9uGZw+zJOUifjd6yC72nHxmaeiw+vD1XPGY3wvr9db/u+f2DCqEM3dXjx63hxcODUXblViX0sXZBA/jIqGNqTGaWEK6EZmZ6fivCk5WL2/EVMykjAhza/XK0hPPMoSFPQEVwSmjUrq89t/NlZixb6DmJ2dilcvs+LCabmHFb+P2nYF9QbWdjZBV70dJYsXH83F9fTgd/fcg3WJE0PGV83UdsNkNEbsr4+P+LoMJwmhIDE1DRk5+RBCQXdHG7hXnhpFo8XYaTMTqr6q+F1PV6dCRGOPo8TQAubX2W+eriRFaSSiUrvdXjMSL/tG6VwsFstsYn4ezHPC3ZeYloFZJ5+BMQX+gNE4QyKyJ05GcnpmNMqy6AZ2CMuHhUDjSSV48403cOGFF+LuU6b3EYd27dqFNfA7sx3scuPKNxy4wVqA5y82o9XtxZtbqvHq5v2HrT+H6LefV2BGVjIWjPUrhKeOSsJnV588bCLDF3vq8euTp+GGosl9nOzWH2jBn1YE9yhuz5+JPfu/ALM/P8umTZvQUF+PXbt24f333sNObQZUS1zouTTERavkHFFSNBqMHjcRGbljUL9/Lxpr9oMDkdpEpJ+7+Jx5pa+/+DRL+b4guoT9GfyPScoTZm4gId5jKb8E4GUiFUCF3WbbgmHI8n+8xvyYcSsaIe4EcDf61n05agEUFpdgirEYQlGgaLTIGjcJo3Lzo3Z61AkgXR/53tq2Llzx3y+GsiIw9otnMDcvA/965hmIXuDys/v+D0uVo9OEWPLS8fSFRoxJ9lu3tje249VNVXitogo17X4nuVEGPT6/+mTkJccP+zzsb+1CfkpfK1qnx4dTnvsSe5qDKzenp8bh1cuLkJeWjN27d+Oaq66C2+1PXelOyUL1wu8fjuYORneOlTj73Asi9q3bB7R6j536w+vuQX3lHjQeqAKY4fV46t585L6bet2ST0SXADCP0D5UwbwBwAoQuZhZBQANUXWH2+3auHHjiGubv/bgYrVaZ7GUzxMwN9x9o8dNgun085CQmg4Igcy8ccjKnwBFMzDmTS+AtCjApbnLjYte/HRI36ZvOYAptpfx/nvvITHRr3Nobm7GvN8/g7bsKUGfSdZr8fA5s3FRL6WtZIajuhmvbt6PN7ZUY2JaApZfdXJIF/7hpOs/WIdXNvUNSUmP1+GCqTm4fMYYFKQZkJEQD4/Hg2uuvhpbGjshNTp0ZhegZaIJrGjDtv/gvHSYLMWRwUUFWj3HXrfq7upE3b5daGk4ANey93+9c6OjTwIgJhoniC4F87xh2I8qA7uIuZyBNQAOK2dJURoVRVm/ZgCBh/+zYlFJSYmmu7PzTkh5N4WxApGidFnO+FbcuMLZAgBSMrORPb4A+vhBRu1GOf1JcVrQEHlOd2o28s/57mFgAYAvy2xozyoI+Uyb24sfv+1EuXECfn9qIfSKgCCCdUw6rGPSce+phdhY13pMgOWNLdWHgSVBp8H5U3KwpHAMTh4/CoIIm2qbkZHg56Ae+fvf4VCy0Lj41AG9Y2Ju9gl9iuoNCRg7fRYy88ejq611bH9wIeZ9zPwggAkgOpOIrGCOUtajHmKuBrAVzFtYym0Qoof7KoXqiKjCZrPVHetv/1pyLlar9SRI+W+E97BlRaMtP+eH/+8kQ1JySlxCEsZMng5DcuqQ3h2tWAQAFz37EZqHqEW8v3gMfnxK38/8f/96A/9t0ISKqj1Ms0an4JmLTJiYlnDM56i6rRuLn/sSM0an4IoZ+ThvSvZhr+J2tw+26iacPtGvN/rs009x298eQ+XJV4FF9DYGoXpR/otvoZsjK7i6fECb9zhbhQnv3nd+0Y+6FGUWpBwdHC8oDsBJYJ4AorQAAEkJdAuibsncJIADkrkORMGjQ4XwEdF+n8+30+VyHTx+n/t1AxZ/vd6HESwnaG8FFtFT51zz/85IHpVlHT1uEjLzxoZ00x8IaQWQESW4XP/GCmxuGLxLOLHE7pvPQ7LeLxr4fD7s378fEyZMwF8/XI37NxwERwCYRJ0GD559JJ/usaKdTR1IjdNhlKEvU7n+QAu+OtiOy2f4w7k2bdyIn91wE3Yv/AE8iWkDekeipx3Lb7wiKitQpw9oP+7gQjvPyNFMBoD58+dnSa93lmTOHKaNzCxEPYA9BoNh/0ASbv/Pi0VWqzUZqvokgO9EmMCVBDw399TzZudMmmodUzANunjDcenz2PSkIYFLhrvlMLAAwJ49e3DDL36Bx598EreduwBjcnbhl59sghrGstnh8eGn767F57sb8ODZsxCvOTbeBwXpR/ulvL6lChoSh4GlpqYGt95+OyrnXjBgYAGAbK2M2rx8QniyMY//glmzmMgX0H18ajabsxVghiRaCClHE5Eg5oMqcxURtYQDEwJawVxHOl2dx+Opd9nt3hNpz34twKXYZLJIKV8GUbhM6q2Q8l9M5IpLTJQll191aUb2mBFYH9HfOykjBcDgXQgm6voePq5tu2BISMCrr7yCq66+Gt+ZOwmLJuXilY370OXzB/vpNQp0CsGg1UAhQpLeP8UpcVq4ffKYgUsfrsHjwz1fbMEVM/MPxyC1tLTglptvxvbx89E1euKg2p2amToi8zaS+62zEkkAmg9hhGC+hInuJea0Q2IuE0EQMYA9DKwE0QeKlPukonT4fL6OeI+nvVun63C5XN4Ted+e6OBCVrP5Bgn8FWFMzGC2gehZJmonRdlz6z/fPC0+MSlvRA6fAdw7Pj1pSO+anNpXr/fSjkZsTZsO98qV8Ho8+NnPf44xmZm4deG0E3YCdzZ14HH7Lvxq4VRkJ/q/p6W5Gb+4/no4DePRNm72oNu2TBkf9b3yBHHC1xiOJOC2mEx/A9HNYVQWEwmYCOYrVaKXwfwHl8tVia8JnbDgsmDu3FyforwEYHEYUOkg4DkJlIGoh4Rw3P1WeVMcfO+OVL8GskgLMlKGZDGamNgXT6t6GC2TrdjGEgc//BAff/wxfnbddfj+lVcCRNjX0onUOB1S47QnxByqzGjp8eLBs2cfVu61t7fjb3/7G6rHzoPInYl4ry9kFHVEcJk6aUB9OSE2nBv+Ivcm04VhgKU/CQK+B+YrrCbTf0ij+V15efneGLgMRr9iNC70CfEacDiZezBg2UlEj0rmBoWoBopiLysr644n78+ZKXOk+sbwOxMoUeh0U+N1mDoqCdsODkLvwoxxqX0d3eoDFsrmKcXwxSVi9Nr38I/HHkPF5s244847MT4tDQe73Lh/1Vfo9PiwcNwozM/PQKLu+EyzQnQ43OAQJSUl4Y/33XfUmFbUt2H5rjp8trsejuqmo6oS9KcUeJEYp48a7NUTA1tYyUMrAGKi34VdQkQ9JOUjTOQh5lEM5ICoCEQ/YFW91GIy3WNITHz4RFDcfm3AJWANeiyUGMTMkojeIqK3mNmtSLm+d8U4ZvrRSPfRJwElStWFNT9zUOCieLqRFH8kWt6tSrjFkSFpHzsTvoRUZNvfRGlpKTZu3IhbbrsNp512Gm5fOBWO6mb8bfVX+MEbdszJScVPTZNw8fTcE2OHAdh+sB1lVY2w7W/Cmv2NqGobWCVE0+ikqIGF+YQBl/rFRD6LyfSdSE6fYI5jZoWBLYe7LuV/QKRhZqsQ4sbuzs7vWq3Wq2w228YTUqdxonSkpKQkrruz8wkAV4e5rVEC/yDmbaQoB3w+n83lch2Ox/+81l2ostg80n1N0hISooTltdUNuOk9+4DfoWs/iJdOHYfTTjsNgN9vZNbjy48GoZ4OjHa9h4Q6f2F5s9mMG2++GZMm+UWGmvZu7GzqRH5y/OHgxGMOJszYU12LVfXdKK1sxurKgzjY5RlSmw+dMwfGcdGp1bwSaHQff3Qhxue3f6voAo0Q2xBFalUAKhO9QFK+IYkSiVkJbFqvhmirjzmXgG9LIcrsdvuLMc4lCBXPm1fQ3dHxBohmhUFBB4CnFaCNmLeU2Wyb+6szfFKcT8cALr2So8blWTkZSI3ToqVnYIp9xdMNr+fIBmwMkQdXjUtEzfwrMK5hG06mg5gxbQrq6+uRm5uL+Ph45Cb5/xwvcrvd+Nc7H+NfuzpRq2rh1eiHYdFKzB6TPYD5OjE2GwNrNULcESWw+CVL5h/CX3P6OgjRqqhqrk+IPC/zLCZq1vf03OU1GFSz2ZztcDgOxMClt9hgMp0riV4CEMrRwQvmlyXwMYRo03V3r1m1aVNzUAASOONYODS4VT+qRQMvGiFw5uQcvLZpgEp+Zni9RwCpdxoFjSAUpCdidnYqrGPSUTQmHZMzvtUnr+2JQnq9HtdfdiGuD/y/bEclXi3biM/3NaJGkwKmgTs2zs9KgEaJ3qTuPkFMRVvsKzYCeHLgLA+dKYDNBDygT0r6S1lp6Sar1Zqs+HzjPPHxC6Sq7nU6nRUxzqXXkFnN5t8A+B1C5Ldg5koiepSBagix12AwOErtdl+Ie+nTWp/5WOkMvDK6rPIAcPKk3IGDC9Hh6ODe4DI5IxGnjM9EblI80uO1SIvT4WCXByq3Iz1eh7Q4HfSaEzfBYPHksSie7K8iUN3Uigfe/RLv7mtDmz456jYutc4Y0Fx51BPi0ztfeeDuSxDGszwCxTPz77o7O79rsVhut9lsbwHYBGBTidE4qqioaJzX660+kXxfjgu4nFNQoG9KS/sXgO+H2VwrWVWfJSE6hEbjjGR6W1aDMYKQfKy+wa1GDy4zsjNQkJGInY0d0W8KEmhpaTnCAQRO6h2NHdgRoZ14rYL0eB0yZTfyW/chp7sBaYkGnHX22Zg9Z84JsfBUVUVeegr+fvW38HcAr6xejwdKN2OfEn4K0xQVM3OjNwZ61RPDO3fFWy+tlT7fhcPQ1GRiftNqsdgk868cDseKUn/80EGcYHTMjziLxZLRlJa2LAywtEPKB1nKJ0ijqdW0t38SjU2f4Bt7LL/DMwBWmwBcNnPCwDafLh6NjUdKiKbH66J+tturorqtG+s7gPeUcXhnlBUnnXXxMQeWutYOvGvfhFWbtmHb7r2ob2g4zI0pvcQaZsYVC+Zg7a+/j6dPGYtR7paQbX5v7uQBiX/uE0Df0t7UgE///dTwDj6zVQBfWszmd4uMxnk4AemYci5ms7mQmN8DEGqnbQHz4yBqhBBb7Xb7JgBRLQ8GpdMxPKO80m+SjlYCOaUgD4+Xb4tasavqEyB75WRNj9dhYloCdjd3DgjUvjNrLP5w6klIi9Md88U1OiUR67oUPPL59sO/6doPYlRrNXK6G5Ar25GanIxx48fj9NNOw4yZM/Ht4jm4uHgO/vDaJ3jiqxZ4tUeU0TpInDerYEAiUc9xtkEzM175629bpaqmDENjHeyf1ngiv7KKgAtYiPOtFsu7kvkeh8Ox/kQBl2OmAbSaTGeA6DUET5atAnibgLckUZdeVctXuly1A2n/01rfpcy89FgOnkFDSB6AM+wbG3fjkTVbo1lEOD0dePknF/TJQAcAzppm3PXpZrhqmsM2MT7VgAfPno2S8ZnHfZH9ZeVX+Ovqo0uAKJ4eJFZvQepOO3TtBzFlyhRc9/Ofo3j+fADAnrpGXP6v97FL8ev6v1eYg2sXRX9I96hAi+f4gov947fx7hMPDLWZLmb+PYDDWbcEUaIkyiMiPaTMBlAMYAoBb7MQ95wIvi/HBFyKzOafMPAPBHGMY+CgYH5MAtuJ+UB8UlJZaWlpz0Df8ekB3/ks+b1jPXhZcYRoufQen4rv/OczNHWH5l6IGX8uysNPFofOLe6TjJ++68Lb244OitQIwnXmSbhj0dTDWfs9qsRnu+uxqa4VN82f3Ccf77Gi+1d9hQdWha4xFN+4H6nb1yDxwE6YzWbcceedyMvz+7Hc+NzbeKOO8do1ZyNJHz0H1uzm4yoWVe/chn/efq1Ufb6hDbifY7keQNCFI4ikAHZLRWmQUpqJeSERNTPRezabzfWNBJclS5YolXv3PgjglyEGbRWA5yRRJzOvdzqdg65L+2mNdxEDK471ACZrCYYBCJcfbt2H+78M7ed3WbbAE1dHLAgJt09i8fNf4qte3r+FWcn4+zlzMDfHzxxuONCCVzdX4Y0t1fBKic+uOvm4OdIBwCPlO/H70vA1zfWtdRi16VOkt9Xipz/7GS6/4goIIVDR5AaL6AdaZaCh5/hxLR0tTXjilh+i9WD9cG3U1wj4uxSiRUpJALQawOADkgEkE7PCRKoi5c64pKQtpaWlPcXFxXkej0c5XsGOIwYuhYWFukSD4UUAlwc7xFnK50C0EsxtHlVdvX79+pahvO+Tas4X5DvmgziQ5FGA36R8w1ursan+6CRiGk83dv3qIiTGRedo9t5Xtbj6LQfiNAruWDQV15knYX9bF5Zu9iflPpQUWxDhP5dacOak0SM+HlvrW2DQ6TAuNbjF9e/lO/GHCAADAElVWzBq03LMmjgWt939W6gZA9PXt3uBTt/xARfV58Wzv7kB+7ZsGNZmIcS5NpttWbB9PHPmzNT4+PhMIsoiVU33AfsTExO3DkYKOKHBJZDY6W0QLQ4iBm1n4HFirj/suzIMwVf3MIsFtb42AMf8aE7VEeIGkCZle0MLrn1j9VHq58mdVSi/9+dRt+P2SVz+6hr8ZnEhdjV14pXN+7Fib8NR7d6+cCp+tXBqn9+q9u/HmPz8YR+LdrcPi579AnlJ8bhsRj4uKxyDeG3fwXncvgu/+Tyyz5fweZC9cw0ev/0GpOVE31eVgYM9fNxM0O8+8QDsH789AruVOoSUp5U5nfZo9qCUchSArubm5uadO3e6v/bgYrVaR0PKD3F0ftvDSltmdiuq6lizbt2+4Xz38hrvcgCnH+tBVAgYFUcDGsx/2bfi32t39/ltTvM2fHb/rwb07uvfWIU3d7fAowZXLpxVMBovXWLpY75d8eWXGJOfj4kTJ47IeHy6ux6Xv1YOwJ+k6qJpubhm7njMHH3EYPLcur247ZONEQFgfjLjz989f0Dvb/UA3cfJSvTl0hew/KWnht4QcweIOgCM7rdPDwopF5W5XNsGuM+P+YAMq2bPYrFMgJQrgwBLFavqb5n5DRU44GP+cLiBJUClx4UNZn9dnIHQD4xTMSW9r+hQX1uD1tbWqNvYv38/3ly3IySwTEhLwFMXzOsDLA6HAw899BAmTDjaG6CxeeCS6dOrNsHd7/2nT8zCZTP8WQBbe7x4Yf0+lDz3Jc58cSVeXL8PHR4frpk7HvefOSssIKfIHvzusnMG1B+fPH7AYv/oreEBFj+4PMXMNxPzHfDrEg+tsFFSiM/NZnPhQFo7HuMxbOBiMplmEPNKAJP7DBHwMTP/WijKLlKUDQ6H4/PekczDuslV9dXjpsDz8YBSKeoUgd+cYerj5dupT8YTjz8edRuP/uMJeOODe7QatAr+820zknrl4N23dy/uvPNOTLj4h0cVgatt78Gj66v7rW8Ose6P/L6ji3H+S6uPSplw32kzkJnQV3fkqmnGTR9vwEmPLcMNH67HzNHJePDs2UGd4oRU8deLTg5apzqsWHac9CwbVizDe/98cNjaY6JJACCB/cz8JKT8JTN/EQCKHAGUWq1WI05gGhZwsVqtixWi1QDyevFh9RK4F8wvEnCQNJrlthEuH3l2ftxOBuzHYyAlA+0D5F7GpiXhd2fMO3x6d+ZOwVvvvIMnn3iijwNdMPrs00/x4VfVIYuGPXLuHEzJPAI87e3tuPmWW7BzSgmKTPP69Z3x8w/WQukXRPjvDcH1469srjr875LxWVhb24xTn/sSX+xpOPx7erwOD5wxM+jznR4f/rOxEuf8exWecu7G9Myj04HeaC3A1NyB+ej0qP6wjGNN2+wr8ebf/9inEH0vjqEWzFvBvBPAAe5dSDqseoXOIuYDEMLFRPVM1AzgaWb+DYh2AhgFKT8rMpkWnKjgMuRszVaT6RIG3qQjilQVzB9JKR8hojoN0c78CRNWffLJJ13H4oOuvPl3nUS45HgMplcCWkEDqhM9Ni0JQkqsq22G1OqheHuw7bP3YbfZkDV6NHJzc4/iMurq6nD9Db9ElfFbQUud/sI6CVfPGQ+tcqQj9917Lz71pqN1ogl/OWNmH47mccduPL9uH86fmgNzXvphwLnyTQdOm5iFUYa+HMjP31+HheMykGHQIzsxDv+w70KH14elFVXo8alYNG4UiAhTRyVha0MbtoeJhWrs8qChs6+u8aJJGbh64dwBg3uz59grcTesWIalD94D1df3ZCHmT8H8EAPvBMSaLwB8wlJ+IIjWQ4hWZjYQUSjPXS2EGDtu3Li/L1++fFdmVlaVotHEg1mFlKUEHATRDBBdlTdmzMbq6urt3yhwsZpMV4Dov4cqHjJzJYAHAaxQiNqgKKvK7fbtW7ZsOWZz/sMHf79NdvD3AKQfjwH1SCBeid6xDgBm5Y1CbVMzdjV3oTtzPPTNtWjevQ0ff/QRlr72GlauXIlPly9HWno6xowZg4SEBDy6rQVNKUcnS1o4bhRuXzgNKXEaaALOcm+++SYe+2ItDs48HdNGJeHG4iOS67aD7fjxO06oknHZjHwUZvm5nc/2NOC5dXuRl2xA0Zi+Q3n/qq+wv7ULF07LhV4j8NnuelQHalHbqpqw/kArTpuUhXiNgoXjMvHKpkp0RZknd1FOEu48Z37UtbsPUauXj3nelvIPXsc7j98PqarBlBzPgqg2CEeiMtAI5goAn4L5S0FUz0AGAf2BZkJLS4u+uqbm0wMHDvRUV1dXjhs/vh5SpjFQx8yrBVESgDvG5OXVVdfUuE4kcBm0WFRkNn8P/jwsGgAeAG+QvxD8bgFUtnd3f3w8SkguJvIBuP14Dahkv4/FQIgA3HGGBQtzk8FCQe38y9FYuBhSo0dbWxs2btgAm82Gp//5z0MLFGcZj047kJccj8sKx6C2vedwFPWB2lr89flXUD/3PADAKb3CAdyqxLXvuuD2+Xdlbw7lUBnWT3YeOIrPb+3x4p1tNdh4wK98LpnQV3xZvqsOpzz7JdbWNmOUQYc/nBqd7tGclYDfnb9wwHlpulW/SHQs6fOXn8H7/3womCh0aE6LBZEbQuxgIptWr/9SZV4NIVwKsEsALYHJPCiZPwHz7cR8T8Cx1NurndstJtPhAvZr1qypL3c6P4YQLkFUL5mfFcCdAO61ms334gTKLjmojgTy3D4BQBDzNsn8NIhqBdCpZXYMNC5oJGh5rfdTME47Xu8fqOcuAHhVibveLoW9wc8FkPQh/mAlNN1tIJ8XmZuW48knnsDcuXPhUSUm/+k1dGgNhxXEZxaMhsqMl75tOax4/cUNN+LN5NnwJI0CAPz3UivOKvA709316WY85TxiDi+95hTMHJ2CNrcX0x9dhh6fCkGELb8487Byts3txYSHPwLgtwq9elkRbFVNOPelVUd9j14RuGfxSbjWNBHfe8OOj3eETpRmzUnGH89bAN0Ac9H4AiksjxVrrPq8eO+pB+FcFrHAhCqAs8ocjs9C3WA0Gg0ajSaPVDVPJco6nMaSKImBswk4C/78L0zAT8sdjqd7P19SUhLX3d1tYlXNV6RskopyLYg605uafvLRcfBrGbJYZDWZbgTRowQ0MvOzzPxfImrTEO3yMK8qd7laTwTU/OFNf/icSV4D4LjkePRIQCcIygD2iiIIp08fj+oDtdjd7gFIwJuQBndqNtzpeVDcXejauQlnn302FEGgng6sONB5mKPY0diB5y82H+ZAPl2+HP+34QA6c/xikFYI/O2sWdApAl/sacAdyzf1ef8tC6YgSa/Fy5v348PtBw63Oy0z+bCPyoEO92FA2t3ciUXjRsGcl45/OvccZZJWmf0iU1s37lw0Fa9s3h/UbH7WxCzcfbZ1wMAiGWjyMI6VNNTe3IgX770VW21RRZkIBs4am5PzflVtbdBcK7W1td7q6uqmqpqavWlpaTt0en03pEwMHPpbCFgOoIeBMSC6NC83t626pqb80PN79+71VVdXV+bm5bWyoozTAF9AUTq79fo/TBw9+pPKAwe6juceHNBsWkym20B0HwNLWVVvB1AmiJpZiOVrHA7HiZQFa/EYqpJM1x+v9zOAFi/DN8CVL4hw9wWn4KJxKUeVCWyafgpWu9Zj+3a/7u6GM60Yp/EeVsCeOyUb00b5LS9utxsPPP8qWiYdSc5nyktDok6Dlh4vfvnR+qNO+4wAKL28cX+f3z/uJRo19/TN5Xvfl1uhEYSF4zJCftN/NlbiR++4cNWccUdd++7s8bjjDBN0ihj4+Hr4mGX1r929HU/96lpUbh1QsPFoKcSXxUbjzEg3VlRUeOx2+3a7y/WBRqf7TACVALoYeIelvAlE/ySi31rM5r/0f9bhcOxvamr6kAEfM+8TGs2NHo3m0WKTae7XAlyKLJbbSYhTCLgezG9LRelUmDeXO52f2O32RpyAdGae5mUmPHC83i/ZvwEGmsKVANx0zkL8Zv4kaNQjeK3q4lA/60z8+8UXDwPRq1efAQ37FQ6/LDqS6+Tll1/G1rx56K1ZPnmcXzT65UfrUd3PLyVJr4FeEdjZ1AFnv3QOX+xpOMyVNPeL6C6vasKyXXUoGZ8V9ps21bXi3xsqoQ+AiE4h/PbUWfhpceGgcv+2eRB1neihkvPT9/HUr65FS/2gpP0sKcSn0QBMP73Kao1e/4HQaHYritLNUn7JRN8nQGO1WB7or9LYuXOnu8zhWKP1+bb5fL7xPil/oQpxhsViOeuEBheryXQhMTsZeEIyuxWiGp1O91GZyxV1MqfjRS3ZmrsAvHG83u8LmEgHkyP69NnT8Y+LipDiPZIgqj1/Bt7eWo1dO/2lmiaPSsYfz5iFGVnJmJfjz3vS2dmJx5eVozujbzxOyYRMvLShEu9/dfQmyTzEtWzaf9S1To8Pq/b5OfvG7qNF+T9+uRWnjB8V8Xtae7xwqxLjUw341yULcdqUwcU2tXmPjRduV3srXr7/13j70T/B5x1SKZQsKcQXRSZTyUAeWr16dXt5ebnNK+V7EGKHYE6ElB9ogX9ZLJbvlJSUxPV/ZpXLVSmlXCGEOEnr9b6kMLcXmc3fPiHBxWg0aju6uz9TieIBkKLVrihzOL5cvXp1O74GdBmRmpaj+Q6AD45XH7xy8AAzLS8bS6+7BKckekABMaluzjn4y5PPHr7nx6ZJeOjsIzWXX3vtNVSN6+u8majTID1eh19/FjzdwyiDHpIZSyuqgl4/ZDVqDpKLpqK+DZvqWkNGQvfmyL4zaxz+eekijEtPHjSwdB0DL9yd6+149IYfoGLNF8PVZAYTLbOYTD8d6IMul6vLbrc7vVK+pwjR4ZVyXFNT0xvd3d26UPc7HI4VXq020cvc6PU725UYjUbtCQUuXq9XZzAYFhLRbrvd/mFZWVk1vmZkIvJq3JpL4Xdo+toBjF6j4A/fvxi/s+QjuacFqjYOH+gmYrXdeXjTGgNlU30+H/71uQPulL7pFebnZ+AXH6xDhye4G3GGQYcv9x48Slw6RB/uOAAG0BSiftKfVmzDgrGhuZfJGUl48uJi/Gz+DOg1mhMWWDw93fjg6Yfxwj03ob2pYfA6N+YGAI8D+C2kfJCY3wNRDRE9aTWbHyspKdEMBmTWOByOLrfbOSolpVAIEVbHabfbt8e53fU6IKfc6VyhB8aWFBYmHqs1H1bYXTB1apI3JWWiwWD46njmhRgu+oJZ4zugPgV/oanjQhoC0vQUVa3poGKWquKJd5fh7aoupHTUw/Wba5CUeCTLxLJPPsGPPtmGrqy+gYmjE+NQ1xF6Cq+cPQ7dXhWvb6kKPX7XnIL/bqzE0649Qa+fOiELn+/pmxwpJU6Ln5oLcM5J4yFIDHKj+p3kRtqXZattBT54+mG0NAzdPYuZn0T/5GXMpBClS6Jz4ffA/f5QfMEsFkuGqqptkQwpS5YsUWp3785r7uk5kJiYGCeE8JaVlXUfV3BZsmSJsnTpUhXfMPq0xnMtg0LWox5xdpGAVC1BNwT/6MbGJjz+zkdo9Uh88KsfQAl4427Yuh2nv7kJUhnYp/1o3nj8Z+N+9PhCT/cdi6ZiV1NnSNEpQadBZ4AzStRpcPXcifjWjPHQawc/zGpAKT6S3rct9bV4/+n/wzb7ymFrk5mfAfCZIOpg5h4ABg7ULBJArUrUIoDriPnlcqez9FisO6PRmJKUlOQuLS314BjoSgn/o7SsynsaCbyAXsGWx5oGUnM6FB082IhEvcDM3FHQB8Dqxc/Lceua/VAHUDp12qgkbDsYXo02OzsVGfG6o7iT/hzSFbPG4ryTxkGvGVrFAY8cnLUtalHV3YM1776K0teel16Pe1jTjxDzGpXoWofDcTgrVmFhYWJiYuJYqOpkFsKn1WpXeL3eOQAMdrt9+bHY8IWFhTq3203HInlUUHBZMHdu7up162q+6QDzxR5O9em9jwB05fHqQ7xCSNL6uZnhAKtUHSFZQ1i6wob/9+Ve+HTxw7pYcpPjj9LL6DUCZ07KxjlT8zAjdxR4GILtu3xAu3dkPG+lqsK5/D18/sozakdz42D4x/0MVBFgQWhH1B5Fq522Zs2aYHmLyGw2jxFSFkghdjocjmqz2Tw+ISGh5hipH2jJkiVipKUSCsU+aRXlFxLY39nZ+UpFRYXnmwwyy2p95xL4aTByj8f7FfKHC+iV4W1v695K3LRsM2p6hv9AHJtiwMnjM7FofBYKs0dBpeE5+FUGWj08Ij4szIyKNV/gkxcf9zYfqBm0rMZEL0PK9wSQz0Q3AsgJwb3cV+503h2uLbPZnM/MhvOdzh0VS5bQ7t279SOV7+hYU7jzkorM5h8zcCsDbynMb5Y5nQ6cGNUxh50+rOVMDXv/Sn4u5rgUWzZoCIma4eFiek9wt8eD7Q3N2HmwDbubOrCzqR37W7tDWo769EmrID/FgCkZiZiYnoRpmcmYlpWKeL1+2HOnjBS3IlUVm1d/hi9eeba7oboyfhhQysbA3w8NEQlxHZiDJW5q7Ha7x23cuDFSJTuxaO7cjNr29radO3d6rFZrVnxHR2dpRUXHNxJcLBZLhq67W0qNJtmn0TxKwAXwF2V6C0J84PP5bK4TII5o1qxZCUmKkqLq9SnM7FeYSZnIAWWtCniEEJ0AQERdWrf74Mp160LaGD/d757FirgfwNnHi4tJ0g4s4fdg3qETBJYqWnrc6PR4AQa6fT4kaDWQICTqNEiL10OrKHBLwK2OXHCgV/pBZbi5Fa/HjXWfvs9fvPZCT3vzwYGAyhvEvEsSTSZgMfoV8mPmTiZaKISoZeY5UNUMIroYRJf031NE9EC53R5VlH5JSYkmMzOTly5dqi5cuDDN7XbrHQ7HgW8i54L5c+eO82m1Y4loD3y+yRDiL/DLmQgon7YBsAFwCmA3pNyrT0raO0i5kRYuXJjqdrvTNMwpPqJ0IhotmEcxMAr+qNEsJsoE8ygAmYFJH8w29AFogL949x5i3sbAVyzEVp1Ot23VqlXNn1V750t/6MBxyfSlFX6Q0Ql8Y0lloNM3/L4r7U0NKP/gzY6y918Tnp5uw0D5EgA/YPbHVLCUeiHExQycf6iEaoDutTkcvwUgrFbrXFbVKUS0EMBPe69JBjyKqhaWrV27M9oOGI1G7cSJEyUA1NbWJufk5LR9Ha22FMWHGrREFhClQ1GqScocyXwFgIsRSBIVZHIOAOgA0AagFUAHAW4mSgCzLgDpcWBOISCF/SCRfIKMCYN5G4hWKkKs+t6dfzFMsSy88niBjF4BEjUE7TcIZGQvUBkuWGEpsWO9Q658/cX6vVvWZ3IgfcEgxZ5fEFGtJPJAyqQAB1IA4Lpe+pW6+ISE8YcOUovFMoGZzURkEsw3MKDvtck+Lnc4BpRp3Gg0anU6naasrKz76+oSQgP42LGKosyClEkEeInIDaJZDBSD+WQASd/cMxZ7U7JGr1t00Xcz5iw+tyjOkHDMq7rrhF8no1e+vv4DXulP7NQ9jKDSUl8L20dv1biWvxvX1d42LNkHmfnhcRMm3LZ06VLVaDQaNMzTSVEKGDCA6PpD+hUiurvcbr/v0HPFxcXpqqqeIqScJYHbiOiwdyMTXWC3298f6P4sLi6OO6uszH3PCR7DNyRwOaR4slqtk5h5CqRM7tWIRhJlCWAMM48nosnMXEBE+m8g0PjSc/JqZy86M3WqZWFS3qSpoGNYe1khP8jEK8Or+B05NtCfNLvLN3w6lY6WJjiXvbffuewd2dJwYCyGGW8Z+NLucJT0/m3hzJlpXr2+mJlTSVEuA/O3wNyp6HST1qxZc9jxp6SwMLHHYFgMopPYXxYkNYBY+zV6feFgYvICnIvE18yYMuhJMZvN2QrzJAZyOISnqyBKlMxp8OcHTYUQSWDWM7OWhNCDWQNmPfypMr0g8vQ7QiQovI2TmYkAAwE6EGkZSAFzGoiOSQyFPt7QM2muRRTMtugmzTYhI2fMMeVm4hS/8vdEAhoOcCk9KtCjDo8TXGtDvbp+xbLKdZ++5z1Ys38ShiG5fOhdQT3a7u7cVZs29ck9cQ8gPjYa50iiqSA6lYAfgflVm9P5nd73FRcXx7PXWyKZp5MQv0YgnzMxP1PudP4Y/yM0HEtSmM3mLEXKXKkomYI5VTKfCBoCLQHpDIwlYBKEKGAppxHRiPYtOSOTC2abaeIsIybONiE5PfOYAo1WABpx7EUnlf0etZ4AoAwVT1hK7Nmyvtq17N267a6y9O6O9vHHdGMQ3VJutz8U7FpAv2IRwCIAP2OiC+12e5+o+8LCQl2SwXAyq+oMKMrdADKGIB79z4LLUWAzc+bMlLi4uDTyZyY3wJ9qMh6AAVJqjuPHpoPoagCmY/XOUXljMX76LIyZPgtjp85AZt7YERejCH5rk04cARtBwzfZkv15arwS8Eq/uDNU7oSZUbdne/OmVZ9XbrGvkI1VlRMkc+oQOagNgvltEFWzlMmsKCcRsBjME6JAly02uz1kZnGj0ThKCHGyAOYzcLFWp5vTX+RZsmSJsn/PnkUq0WwC7iZgFIA6n5QzXC7XwRi4jMA7CwsLtWPdbqrU67WJiYlCCHEYcLq7u6XX6x1QebG4uDhFp9MpPp9Pp9FoFJ/Pp2dmgxAiTmFOUInSIGV8YBXrSIh/Irila8QpPiEJY6YWIn9KIfKnzUD+lELEJRybKHhBfp2NIEDAX/6Eei0EooBQz/6/Gf6IZIZftFHZDyLDIfh7errd+yo27NzmXN24Y50tvqWutkBKNW2YxbNyMD9y1DgAUyVwDRGNDTtewOkREmynKIqymJingyjNZrf/Kpi+pGrv3oUMzJbMdxNRJohet9ntS2Lg8g0ho9FoiAdGqUJMZuCD3qbCkIPDvI+FWE9SfqUS9RDRGEh5eW8rwJAnQAhk5OYje9wkjB43CaPHTUT2uElIG517TBXFI0k9He1t+3du3b93k6t15waXqN+/O9Pb0zN+RPUmAWkNzL9kIbYKKd2sKDpmHgUpNUSkgPn8gOObJgQ7VWpzOheHe0FJYWFiT3z8qSpRsoZ5e5nTeVTFz3sA8YHZvJCknA2i3xBRJhNdbbfbX4iByzeIikymEib6IuyCBNYw8ycAdgeRxRcC+PmIK4x0es4aO4FGB0Ana+wEpGblID0rG4pWd8KNq1RVtDTUNtRX7q3e/9Xm1sptm/lg9d6kztaWXCllznHs2j9tDsdPex0yWo1GM/6QxVMAU5joJhxdkAwAWGWe5XQ6N0c6uIQQJyuKUk9EW0PkShEWi2WBYJ7LwG8BxJOimMrLy7fGwOUbQhaz+d1AKMNRC4mY10h/vt0DfcUJkmBuk0JIYp4E4B9R6hEkETUxcxcRJQcW8NDGnAiG5BRPama2mpGdpyRnZOqS0zORmJqGpPRMGJJTEGdIQFxC0rCIWz6vB90d7e0dTQc7Wxvr2xrrajqaD1R3NNfX+lrqDujamg8murs6M6XPNzokB3A8FzhRR1xnZ06QOB1hNpunAygUzJkgugXAhCCi1Wt2h+PySO8pKSmJ6+jomO50OjcgtE+KsFqt81lVzUR0N4BqodFYj0Xiphi4jDTXYjZfwMC7QVBgH4ieYX+x8EMDwyxENRHtiY+PP1BaWuoDAKvVOhlSbg+DKB0ElAOws5Q7WYieXtdGEdECEF2AQOKgESZWNNpufVx8DwAoGo0bJCQJ8giNtgcsyef2xAeAkFmqqs/n0as+n1aqahwzJ+E4BXEGHVnAJoCvJOAlZh2IMhmYREAk0/RtNofjb8EuWK3WZKjqQkg5GopyK4CT+uOr0GjGR5PetaSkJM7j8ST39nsJtucsFstCYrYCuBNES212+89i4PI1JqvVmgwpNwPI7/Xxbgm8TsDHh2JJBJEUwO4Ot3tLsGjWIrP52xy8mkA3A2+xqi4nIdwROJpUoSg3g7kAMYqWBXmWpfw0KDvg92k6mYHz0S/IMDDPleUOx3iE0EUbjUatoihFUNWJJMSNAOb0u+Vpm8NxbTTdLCws1FVUVPgQ3qNWFJvNi5ioSEp5hyD6WbnD8eo3bcqU/5W1mZeb+1ggwvXQYnWxlH8FsOHQogvUuF65dv36vXV1dUHzkubl5f0MgLUfWmwF8x8BbCQi9RDnQ0CjBCqFouxlYL9QlEbBzEIIRapqGYSYHjBPxig8NQJ48tA8MZEqAJ8gIgaIAQ8DO1jKT4lIC6LJ/Q7OlLF5eeVVNTVBgwdra2tldXV1ZV5+Poh5N4BxIMrpJRrNys3Le76mpqYtUkcbGhpURDaocfGCBVWtbW0aEO0C8Juc3NwPa2pqGr9Jk/Y/wblYLJYfEfO/Av/tBPA8M6/udfJ1aKV0RlHjWljM5u0BNty/7ojeBfPrhzgfAroE81fQ6faFkqVnzZqVEBcXNw9SnkRE9yHgYPU/Qt0MPE/AaAIWMpAVBdfiYikfJEU5oNFonL38SaiwsDAhJSUlg73ePB8whpgVYrZCiJ+jr+f4cpvDcWYUHO5JrKomIvoVgN5+Ls/bHI5rhnMgAmbqEgYKGfhOt9t9ehS5X2LgcqJQsclkUYlWEKAnwA4pX5JEBw+JQJJo27hx4zZHE3VqsVjOIuaPA//1gvkfDNgPteVjrpgwYcLWaCNYi43GmUx0H/t1MP9L9E9mLgUzAVhIQnwnmDjTi1aA+REf87vhMt2XlJTEdbe1FUKIyWAuhBC34EitcFV4POPKNmyojmKepxDzAhDd1Ut09UlgqsPh2D2cA2E0GrUaohKhKPmsqvO/SeEB32ixqLi4OE8yLycgkYjulVK+w0Q9AECK0uhT1S+dTue+LVu2ROUXNiY39yEAUwF0M/PfAKw/xK34mL90uVx7o20LAKpqa+vz8vIuBTA9HAsNIjciWWKYt0KISiCqVJ0csGBpozhgfCBaB+bPWIhlYF4tiPaAOQVEwQBBJcAbob/5pCjvgVmAqFIIUUrM+b1FkX6cy0FSlFccDkdluI7u3bvXV11bW5s3Zkwt+au41IJofuAbBSsKV9fULIs0ONXV1Y05ubndClAFwAwgEYAg5qzqmpphrd5ZW1srU9PSqjRabQaYa8fk5c2vrqlxxcDlBCaj0ZhCzJ+BiATz+ZKoFUA8AawwV5Q7HOW1tbVRJ7UKcBkPMXMrgL8A2B7Q09Q2trSUVlRUDKYCpRiTl/dXhPCxAPNnDPwfAUsZmEKhRYiVzPwQEzURcEqEd3ZJ4C8EPEdEm5h5RiinQAa+BPMDYC4FsBPMBwAcYGAHmD8n/8bvb10RDDjJn5ArFDeSoBB95pVyKQnhIeZEZraT31N7WhAo9KpSvlBTU1MfzaBWV1d3Z+fk7BdEFADQQn9XaVJVdfVDUehEUFNT05ifk+OVQC35AUrPQGFObu6rw60baWhoUOPj46vi4uNHQUpffm5uSlVtbXUMXE5AOqegQO82GN4HUO2T8jwoSh6kzIQQ7aqUK+wu196BtjlmzJgnAYwhv8PVwQD3s8fmcKxuamryDaafRSbTBSA6qrwnMe+DHyw+A9ANgAVAIAoWE7WHmR8CkaoQ5QFYGI4LIea/APgq8P8mknIdEy0iIt1RuhFVvY+IunrJ0F4wd0JR3MIfgb4NRAkEFPSTtUdLKX8TiFSfFIJ1mieZH3I6nQfiDYbdCUlJelbVGgK6QDSrD0dFlKSX8rnK2tqoK8HX1tZ6U9PS9uk0mnYQzYEfmBOzc3IctbW1O6LlLMdkZ3uJqAlEC4hIQ8CY6pqaYbfsNDU1qVOmTKmVPl8yNJrE/Px8d1VVVXsMXE4gKikp0bQryr+Z+XO703lzXl7edGKeqAC74hMSVpaVlQ046bHZbDYTcC8pyrcls4YAIZi/sjkcjqEo81pbWl4F0ei+zAI+BtHf2W8hAQFeDdEeD3OzIFrST1zoIeCPDLQT0MVAAhGdEUbB9l/p98EBhKhiYC8ASUJ4ABj7cS27iegzQeRWgZ16t9tZtn79uura2u3V1dU7RufkbNf6U7U0CaJTeuk2Dq2r/QDeAVEzmOcQUX/xK1nRaPZXVVWtbWpqUquqqqpz8/K6mKiDmLtBNLs3N6QSrR2ouNDQ0KBOTkur9Wm1DOB0AEIRIrmquvrlaNuorq09kDtmjErMKohMRDQ1Pyfn45HgLPbu3evLHzfuoKqqWgCpkydPbt67d68vBi4nBonRWVl/FsALNqdzqclkmiqEmK7x+crL1q7dsnfv3sGkKxL5eXlLifkmn5QHBJAFIbbYnM71Q+locmLijwD8pDenEFAQf4RepnGh1a4os9n2jR8/vpWlvLkfALzGzOsJ8EJRPiOi7wGYG+KV61nKF0AECWxzOBy2mpqahura2l25eXltYD6ViFJ6sRabmMjR43Z/tG7dusrK+vqe/rqCqtragzk5OTUkRAEBs/oMGpFbMD8HoEMQ1QbAq49DHktZWF1T82gvUaR5/PjxDayqbgCit8hFRO7qmprXBrxhGxo8E3NyKiUwDURTiWhs3pgxj1ZXV0ddFGz+/PnVre3tbpIyB0STQDSruqbmXyOxgKuqqnyjRo3q0mq1Krq64vYfOPC15V6+SemfhcViuUbj9f5fmcOxZv7cueMUYBIRfbJm3bp9g23UYrFcy8xLSatdTkSTScrtdrt9w1D1Qcx8b+8Dkpl/fcjyBCG69cyl5U7n6kPmbCLqbyXZT34ggo/ZbrPZ2sC8IIRCtJmZnwQRQ4gqp9O5rtdVOX78+FVCiJf7cTn1GqAukmnU5XIdJKIn++sxGJic2tq6HYryBYAvCXiQAHffbtFEq9X6rd6/rVmzpl7rdn8G4BUwr+olRp2MQVo3V7pctawojwLoYeY4qOqAaoUvXbpUjY+PX8HAk/B7cVusJtMlI7WQN27c2Bnf0dHS469aQTFwOc7fUWQyFWc0Nb20et26muLi4jyp12fHJyYus9lsbYNt1Gq1jibmsXan82FmnqUoyj7b2rVD1uRriR4EkB3YhJuZ+Xc4FM8kRJ3BYPi4v88NdXf3t778h5lVhWify+WqNJvNE+G3ZB2l3iApnwDQRkBXU1OTPdjmYaLHADT1+tnj8ydXj0g2m201iPqLCZlNGRmTbDZbnVfKz6SU5SzlY8zcl3uU8q7+7a3atKmZhShl4HEQ7QwAUabVai0Z7JinNzauALAsgGqXD/T50tLSHqHVfsFCPAigFUL8rbCwcMQiSAOxUN7CwkJtDFyOI1mt1sRyp3P1Rzt3uufPn59FHk9ceXm57VA80GCJpDw9PiHht4vmzs1kZkN5ebljqH21WCxnMdEPA4v8QwLuB9AVUBBX2O32L4KVZvFoNL1znVQw80YCvPqEhLUAIJjPCaE4LZXAZgJY0enKQtUIttlsVQA+PLIyhFdKGS1Lzsy87mi9NGcHuJvWHq93OStKKQEvHT0klqMU1Xa7vZGJvmBVffAQ6LGqfm+w4/7Rzp1un98j2xdQo2UPtI2ysrImVVWXA3gEzPkJ8fHXj+S6drlcXZmZmTIGLseRDnEnc+bMSfX5fOoal2vXUNs0m835ik73bmlpqepVlCkdHR2rMcQM7HPmzEkl5qcDHMv9LOVLzKwykcpEq2w220aEMJMKKdN6gd4rAMBCbOwFRMHApUUI8V8AUIHNEQLqACmf7QUXPp1OF7WpnoA1R/XZX1/qMKtvMBg+ZSGWMvBxv2+7I1ibDofjABTlc2Z+CICXhLjYaDQO+iSfOHFiGQPOgK7x6kFu+F0K8B6YXyai3y5cuDBtJNf2UA/IGLgMAxUWFupyOjq67Xb7kH0QSkpKNDqdrmX16tXtZrN5gtLevnEY6mWTXqN5DkA2E11LzI5D+hWNRvOpw+HYH5Y1IMoPgNIGSbRLEHXY7fadgf7GgWhxEH7ieSllp0LU7HQ6KyKCtMtVSkB1ACzI5/NFXSuHiTYHYWf0/UWLzs7OUhLiGQZ29Xr2gjlz5qQGa9dut2/XEC0D8ytgTleA7w52ApYuXaoy8GJg4V882HbWOBwuAC8SsMPT0/MbxOibDS4VFRXej0Kw/IM4LdTVq1e3n1NQoPd6vU2rv/pqyBr7IovlJhCdQcwXEtEu9ufUblFVdVlZWVlTxIkK+Isw8A4ACK124yFOqqejYzH6pXAgwMGAXRDJbq+3HNFlp2QElMTMrNdqtVFzahQIqejTlqJ0B5mnjnifr5SBR3speHV6rfa6cJtZEr0IYL3wxwwNmqSUL8CvS5pbWFg42DpH0se8WhL9g4guC+i7YvRNBRcMb00XBoD6lBRl/fr1LcOgZylm5ltJytOkELtYVbOZqN7L/KnL5eqKskOTQOQi5m0EtK5Zs+awKzwLcWm/27tYyucD17YO5Bu8Uv43gBY6pbt7IGPan2Pshhqc8Sl1uQ4qivKOBP7d6/t+FG4zJyQkrCJF+T8QTS6aN2/6UPQYAL4EoE0yGC4ZSjtE9LEEnhVE98eg5JsNLsNK9wAi2o0fAVgyCHhASHkq6XQ7BPNcUpT95zkcX4QLwgvCGhSQqr4AAIpOV3EIAAsLC3Vgvrjf8fwaEzVDiPaxY8dWDHDTlDLQyoDeo4u+UjUz9+e+Wpk5pL6gvLx8LwPPcSCMgoBJC43GhWG4yR5VVT8h5qdYoxmSKMLMbwT+Pm+Iur46oaqvA+i2Wq1FsV0TA5dowWU4tPQkpPyVUJQr2np6drPXu1AS7bLZbKsH0X4bCbGRiTp6cy0JCQlnAuitVNxLQnwKABqNxj6IGsNMzHYA8b2rMkQij8fT/z111L/I3dEiioOAfx4CSq+i/CTc/Q6H44APeJWZE4uLi/MGOykq8+sAPERkXrJkyZAcSW1r124iKV8m5qvwP5g2NgYux4mKTKYLpBAPlJWVVSckJFh9wG673e4cqAi3cOHCNDC/rEqZqFHVrb2fJ+bL+4lzz0lmqQC7IlqHQm16omUEpCgez6A3HgN10h/NHY5L8kKIl8B8yNJ0fqQ16XA4NkrmF1Sv96ohikabGMjZt2/fjKGK0O3d3StJyhUWi+Xc2KqPgcuI04K5c3NZUUrtdnujyWSaqvh8tZGyyIeinp6erMbm5qVCCHHW2rWH84mUlJTEAejt4folM+8QRO6GlpZBexFLKd8n5kT3ADiXxMTEPqc2ATXC72EaUbQgokeZWYI53WoyRcptIxVFWU5Aq9FoHEoWv1IABCnPGupcV1RUdLBGUwYg22g0GmKrPwYuI0qr162rtdlsbRaLJUOr1XaUrV27c7BtOZ3O7QaDQUNS7ugtTnV1dZ0DIDmgP+hk5lcAQEi5YecQLGcul2sbC+HWSBm1Byp1dmr66TV2qaoaVZBoe1fXB0Rk96uW6HtRAFIbaTSfK4oya9DyqqJ8HNBlzR6O+S4vL9+rqqpdUZSY7iUGLiNOfE5BgV5RFI4mc3ykthITExPaenr6ZEETzFceUe6IVwG0kaI0rnG5hpwtjZh3+4SIi/Z+X++gR8BLQKVGo4kKXCoqKjrA/HhAnDolGt1FeXn5NmZuNxqNKYP5Po1G4wLARDRpKI55/Wib1+ttWzR3bmZs+cfAZUSpUq/naHxYoqHW1taW3o58i+bOzWTgvACbsI/8yZtYCDFgnU4InUkFEcVHe7+q0aT2Ylv2MeDzer3NUS9Erfb1QBxRlsViWRhNF4UQX2k0mrjBfN+qVauaGTgA5lwhxLDkMHa5XF4hxF41Pj4mGsXAZWRpGLx6Q7blUZTv4VC9a6J/S2bJQuwcLjCTwGrqFXIQcaczH+YgmGgnAV6XyxV10GhZWVk3mN8GAJLy29E8Y7PZ2txu96DFPyLaBCBbUZRhc+F3uVwHu7u7u4ZqhYqBS4yOHxFdHfjbxsxbBJG7s7Nz43A1L6V0SqKouQKlVwUDBnaxEE0D5aAk8IRfwqIF0T4zefLk9sFGJ5M/zkjLzBOGc2pSUlKaGxoatDFwidHXjoqMxnkAZjPgkcwvB2SETcPJKblcrlYhRNRhD5L5sN+J8Oc8GXCMl8Ph2M3AOsl8UrS6lKVLl6qBImQDF/2kXBsA0mENPiwtLfW1t7erMXCJ0dePFOWaAFv/BjHXE9Bqs9l2DvviEOLAAESMvIB41MB+B7pBBZAqQnxMRAmKoiwcwGODcngk5j2B70wZ7rEbkPd1DFxidCLQOQUFemb+DoA6MC8HAEm0FsMbWwUA6OjoqIpa5GDODYga6wMbdlDgwl7vywBAqrpgpMeSdLq9AABVjXnWxsAlRk2pqRfAr994nJl7mKja4XAcGIl3bdq0qVlRlOh0B0TjA39vEEQdoapNRqLytWu3ElE9aTSFIz2WZWVlTSCq574Z+GIUA5f/1RkT1wBwsZQbBZHU6XTrRvJ1Wq02Wj3OVAa8UlUrpD8h9+CJea2UcuKsWbMSRpx7CQQxxigGLv/TtGDu3Fwwnwkh7gVRvI95e6+6ySNC0egOAk5j6QAqSAi3oihDAxeiVQRkx8fHp430mHql/AuE6I6trhi4/E+TqtVeycCbQsoGCNHDzJtPhH55FWUKAChEm5hI6vX6uiExLlLaAaQxc8ZI9z0pKalGSNkSW10xcPmfJsl8uaKqv/YBYxSfb9OJYpHgQNUBH7OLiBqGmvdVEm0DoCjAiGd4Ky0t9ZFWuyO2umLg8j9LVqNxIZg/hF4Phbm9bO3aXSdK38gPLpuIuV5R1ZqhtudwOKoA9EiitGPR/2GI/YpRDFy+zjMlLtLq9fdLKSeyooyI6XkInMsUOmQW12hqhqdJNEgpE2MTHwOXGI0gzZkzJ5WJNvX09AgAXTabre6E6iDRLEi5OuDM1zZMrTYIKRNisx8DlxiNIMVrtUUGg+E/RDRRM4QkUCMFfABaVEVpVYHK4WOHuA6ABrHUkTFwidHIkRRiV2ZmJgPwDkeZk+EknU43D8DLRJTMzPuHjxmiehC1L1my5IRao7Fo5+hJExuCE5tKSko0paWlOwCMaWlpOeGsGiTlLBbiDQAnuVyu1mFrmLmbgbrdu3cLAMc0CHDR3LmZXo1mMQNTwTydicYBGE1AduXevfriefOmDyWzYAxcYnRC0CGzbrzP17NzmIq+DS+60EFFUTzweCqHs1kmahHMLYakpGOuuHZrtZcQ8xOB7ztKLvMNY/6XmFgUo+POvZS4XCdm/IsQW71eb5q+p2fPsGIW4BBEncelVrKUoyPcsT+2KmPg8o3hXu4ZnjpKw0qFhYW6+Pj4Co2UamlFRcdwtq34fOUAjotbPhFlhbncNlKBojFwiVGMAlRRUeEpLS3t0RK1DHfbq9etq2Epj4/y+lCEd3CO6qvYzMfAJUbHgAoKCvRdwMGRaFs/Qu1GJOaQ4CID5WdjFJliCt0YDYlGUslc6nI1HqfPGhcGeGJxSDHOJUbfADrmliKr1ToaQDjP4BjnEgOXGMVoEBtCymlhrzPHdC4xcIlRjAZOKnNYcFHi4mJiUQxcYhSjgRMRTQ9zuWakM//FwCVGMfrmUjjOJaZviYFLjGI0SM4FmB6GrYnpWwZAx8UUvXDhwjTV7Z4lmSeBKI2INGBuA/NeL7PD5XINi3+D2WzOJqKTBPMoyZwmhEhlKd0sRDNJWaOo6vY169ZVYghWCaPRmKIhWgCi0UyUCSm7IEQ1Ea0ZbN6VoqKi8ezzGUE0moiSADRKYLeiKGWDLdkRjEpKSuK6u7sLmTlfMKcycyoJoWfmZiZqgP+d24fyzoD1ZTYzT7Tb7U+FG+vi4uI8VVXnCyBbSqmBEHsMBsPHpaWlPcPxvbNmzUowaLUzIMT0wHrQBb51q8FgKGtqatIzkB+ygSjN0OcUFOhbUlNPksAMFmKj3W7fELI/ev2pIJospaxVmZcPcu0Lq9U6iZmn9JrHRJayg4haCNijEn1lt9uPqWn/mOXKMBqNozRCXEXA5QwYw3BNKgEfSaJb7Hb7gNnQYrN5vgp8n4BzAIyP4pFO+At5uZjIpaiqvczl2hZpMovM5osYuBFAcQiQZgCrBPCnMofj4yg2YTIz/4yAn4C5IMRtPWB+DYryR5vNNijF4vz587NUr/dKAN8CMD+KA4YB7ACwFoALQrji4+PLQmx4YTabZynAyQycDGABgOwjV0W+zWar6v3AkiVLlH379n2PmH8JYF6QNuuI+Ypyp7N0MN97TkGBvik19TIQXcnAyQToQ9xaS8AyBq4Ks1m+Ve5wvBfiu40K0XlgPpeBuYfGlZifLHc6r+t9c2FhoS7RYLgDwE0AUnuvRQmc63A4VkTzXc1paRcx0aVgPgNANFUj6w7NIxO5iKhsJBOPjTi4lBQWJnYbDHcBuAHh/Qf6U7nN4SiO9maLxXIWmP9M/okdCi23ORxnhuGGJgrgZQCWAbR5o83h+HtITsVsvoCBZwGMirK9diZaFOpEDAHuORpF+R2YrwGgG8oAMdHUYMBvsVguJuY3Qz2nMs90Op2bewHqSZDyuSjGsksCMx0Ox+6BrG2LxfIDYr4PQN5wrGWVeZrT6TxKNLKazbcC+GsIZP7Y7nCc04eTk/J9AKYQr7nS5nC8FKoPAWC6DsBdALKG+Em32hyOB7+WYpHVai3qlvI/GFwW971RviMZUv4DzN8fpm5XhHmXEVJ+FuUp0Xsz6kOCosl0EwMPDhDok4go6sz/FotlCTE/BebhSBXQM27cuF12u/3o41tKlSn0Z2ilPMztWE2mcyHlKwCSoninQQC/AXBNNB1cNHdupkejeQHM5wzjcvYx8+7g0hKrFOK7CYjr0y/mVQAKQrLEYSKuA2D8HwBzhuODRJi1PkztjwwVmc2XQcovBgksYKL/RKFTmQhmF4DvD2PXt4Z4Vz5L+dFAgQWAR+P1vhpqjIhooMACAE6bzbY1KlncbP47Mb8GYLhykHy1dOnSoMmbpBCp4R5UDIbGANidD6K3owSWQ3RRNOt1vtE4ya3RlMEvFg8n7QlVykUQhUtm5QtwjlqPRvNGGJEXANrburrKggKLyXQhpHQNF7AAgEfKLSMJLiPCuVgslouY+T9Rtn8QgBdA5uH7mZfZHY4PInAskyHll2DOidD+WgBbALQykEqAGcCUkLw0c0WIBfQQmDNDPOYFUAGiDmbOIT+gUuBU+9Oadev2BRFTUhh4NAywtDJQIQAt+2NdDrHA3cR8IyIroclqNj8D4OoI9zWCeSX7S7Bqya9kL0avE7ffMb0lzEk1KkynOletWtVsNpvNxLwUgHaAyyq1qKhobHl5eUiOtri4OE/6fJ8TMDaS7oGAFSCqY8BAzBYGZoQ/7Tik/k8yJ4biXMDsBgCNEHcCWBShXx9WVFR4ggDLFSD6d4T95AGwAn7OpwtEY5h5Pvn3VVAgc7lc+79W4GK1WmcFWDdNGA3hOgIe0uh07/RyShLFJpNJAvO1cXEvhNs8i+bOzXRL+REB4YDlFSa6y2637+m3qcdqhNgXckDi4o7aPEVFRdNZVS8N8YgLQlzUW1FptVpHQ1UXsRB1dodjZdBTnOjaUDIzMz+qaLW397bSmM3mQgWYowJlDqczou7BajbfFxZYiPZByl+OnTDh/f6cSJHZ/B4D5wd9TIiQrLSUcjyFFouqLRZLhmB+nY8GrhoADQBmh93fXu+YUOLyOQUF+iaf7x2EB5YDTHSLwWB4rX8SKovFcn6Aw4sP8d3bw4xlchgOvLaoqGi6VNW7IrGnAngkyH5aDClfCLOfugHc65Py8f5pRi0m009B9GSIPm/BCMduDSu4nFNQoG+S8lUAhtAHAD9kSEy8PUiGMVnmdNoB2CPNgUdRXiVgUqg1DuCqUEoxRVFmgUOOac2qVauaj+pzaGCBAO4u62cBCWjgXw/7EURLQvSiq7O7+9YKp7PPCeZwOCoQpYxcZDZfxsCdYU7hZfFdXZeUVlR02JzOYOAfcpNLPxcY6psmhFmt+0jKR5mo9+Y/AOZf2JzONwGwxWz+CwG3h97DFHK9Nqam/on8VshQtE3x+c4OxkUCQEZT0/KmtDRNmO8OZ7kMWXaWgP2sqn8MY6U6NCdflDmda4JwYm8gtAL+ACnKqeXl5VtDjNesMO8bUZFo2MGlKS3tdoTxcGTmR+1O5y1D4ozM5v8HYHGYybypPIy2nZjDWSa2hFjVIQFJMusH8RnEwMxQezQuLk4TYHMHTIvmzs30+MWtUGSP7+6+JFTmOLPZnI1wvh5hAI7D69dmo1eGNwI2q8C5DqfzMGuuAB/JMODCitIThlu+Icy76yFEyZp160KaXZsyMmZASm0YYPsqzJobHwF4Lu732w4CHmOgHcAsABcqzD85am35fE+H0ZW1CeZzy0IAyyHmZTDzeMKBi8ViyQBzOODYoIa/Ht3GIfpjqI3OwGs2h+ORSF0dMLgwh86pKsTfjEbj6oE4P82ZMyclpE4DiNMK8Tj8lpEBs60erfYvYA5louxSfL7LwqWkVJgtoSw+DLgNBsPu0Hss7Cbr3ac64fOdX75u3f5+ms+ucBpbIgqeXlJV/4QwXA0T/cgewZ+DmOeHG2wRTiwKA6oM/JR669WY345PTPxOPz+hm4Lsp4sjWLtuLHM614WVIvzAFep7R5xzGT5rkZQ/BZAc5mPuHGrhdI9GczuYQ5X47FKlvC0SxwC/QnegSrvmMM8UaISwFRUVTY/2OyZPntwOvxI41IK8ymo2v240Gg0D1HdNBvMPwnCOD4QSC3rtImuYOdwdKmG22WweHU4c7rPXma8I1g8lvHLe197eXhOUayE6N8yEf2a329+P3CteFAbVOsrKyoKWqS0pKdGE4/T6iUN2H/NlUXgcC8H8h3Dcp83heCGsFJGRMTeMOAWScsfXBlxIiHA+CNvKnc6PhtJ+SWFhIoBrwyyAf7hcrrDlLYrN5mIA6WFu2TMgjqbXycWqWl5kNn8vmm9ZunSpGkUu1m9rhbCZTKYZAwD4X4bhRhsVrfaByHuMzwtzeXcYFjhal4MXQnnbMtFJYZ7bGcySAil/iDCmfEn0pyjF1IVhxmRHKC6yq6srH9FZvtoVn++yaA7YYrP5zLDWKyHuQKSE7VKGm0fVQ7TvawEuAX+TcPb7pUN9R1dCwuUI4xchVPXZiHsPuCzsYIRwkhJ+bX0kESWZgZesJtMLs2bNiuiJzMALUdwzQyGyWyyWn0VckMXF8QC+F2aD/DdSjJDFYpmCMMpcEmJPmL5OiWIaWxSt9vYwp/zMAYuswCVhnqmy2+1fRLF+FyGM5ZHCKHOZOVpQ/WtErvHIOv1xOIC32WylUTSzJMy1/UOVIo4ZuChEp0aQZz8fMmfEHG6wyqOJBwJwabg51Scl7Q12oczl2sbAM9F1lH4Qp9evtFqtY8Iqu3S6p+CP2YlE8cT8hNVsfspoNIY8IdnrPQN941T6dktRIoKZYL4s/GEod4fZENOiAMun1qxZUx/m+uyBgIvZbJ4IINw4vxON3koQXRXhlu1h1v6EKOawPr6r6+Folk9AFA7HdUQ86CwWy2wAU8Owp3twDGhYwEUyl4RbU5q4uCEVT581a1YCA+He8WlEfYTJ9G2EjzGpDScLKxrNDfAHOEbGF2AupLQZjcaQPherV69uF8yXwx84GQ1dqyF6K1StYiYKtyCbbDbb2nCNFxYW6hj4aYTv2h0G/KdG6L+PgX+EunhOQYEeYbgfJtp6NI7Toggi3upIgzpnzpxUhD+4woJLlJzLP6Ot66QoyqkIrewHMX8WcVNL+f8GO48nHLgQMDnM5bZgviMDoQS93hTWT4C5LAqO4o4Id+wKd7GsrKzb7fUuBlAaZbdzNUK8VVJSEnKhlDmd65ioBP5o1Wi4ovP27d17X4irC8I8Vx7ptEsyGK6KwAWEFBsDFAlcXnc4HCE9QhvT06eF011wEOsGMc8PO1yKEvFQ02k0tyJCGIII452LyLomVqR8fgAc+oIwlz1xiYmusIeo1TqGia6MIHZ9fcAFYaJ5CRhycfII7DIUVa2IwCZehPAOVqDQytzDtH79+pb05uazGfhXlF2f19PZGXai7Xa7k/3u9mujBPJbzGZzfpBTP+TmJik3R9LXMBAJfBGqZGtJSYkGRAURNs2LEZoPN8dSo9F8FWQscsM12N3dvS/CRhxNQvwy0nd3+3zhwCWSWPTpGpdr1wCWe7hx2BnR0iTlbxA56n3PNwJcGFCG3Dpz2JD5DlU9GGYBJRNzJN8XyCjl0I927nTbHY6fEHAFogBOJvpRpHvsdvue9Obm+QD+LwodgUbpl3OkPiVlNML4LEkhwiYJUn2+30VxAteHYu07OjomIbzFpLW9u/uzCOAzMwzntTuYMpqJMsM06d24cWNnhHX1WBjXhkNUt379+pYhcC6vD+NaPxjhEC1GeGVwNBzoCQcu4awjWUN9DwsRLs+JGm4Rkao+hPAep4OSQ8sdjlchhBmR8qoyT48WtGwOx01MdDki10ju06Y2ch6YtlAXioxGKwGRnRuJQoKvElmZ+15QM3JfmhlmDENZijLCT2nodWc1mX4I5kujmJrtYfU14ceeIcSHA9Mx0Kgw4xAyOfiCBQuSiPm5aPaaNoxi/kQEl3DIri0qKhobTSMWi2WK1Wz+8wAXkbJgwYKgMrPVbL4lGs5hsEoum822g4nmI7zVJ6mwsDDq5Ex2u30pMZ+LME52sp+vDms0oyJMckqI8Z7AQryDaDy1wyzIiGZo5rej+PSZYdrfGqLduHAc3qK5c4OumyKz+XQmejzKzb431KV4rfakCOL8+v6Z96JQAYRe60KkhBJLfR7P0ij0XgDQvnLduoavE7g0hR2wMIF/h6bQajZfQ8x2AHcUm0z9XfTD2uQ9Hs+0ICfTjQAeiPYDVKLKwXy43W5vpPD6ioYoTu2+XJHfyew/Ydja6oGMDwepxWMymaaCeTmA0VEt+jDjQ0JMC8t4arVfRDhUMhBOf0IUCrzDWmC8Gs3iIOviXCZ6K2Ig4ZHBawyzZqZHOLA+Huh6CpsEjHlK/z1rNBoN3Z2drwA4K8pX7McxouEBF6JIWvm7QrjHi2Kz+Wyr2bwS/jSPKQCg9l+sYdhBABBEP+ulYxljMZtfAtHD/b4vrB+MRqM5GGTRX2w1m39fXFwcKU1iuKjYPubQIovlniKL5ccBp7dwlB5mo6/uBx6RaulcuGDu3FzAn7PWYrH8SCEq7xdZ3oMwXpsUXt4vDHPtq7KysrCHj5ByZgRwDMU91EfgAu4MeHZjzpw5qRaz+S8geq+3noWAzQC6wnx3Yxhu7qQIgLx6wHsp/FxmWSyWw06DxWbzfEWIVTjakXDbYPU2w0nDErhIzCs5vINaGktpt5rNzzLRWvJHEp8E4FsyiLa9f4AaAbs5/IT80GI2TyPAByktdLSfQD0z/4GI/huihc4gCkMi5scBZEuf79dWk2kFA+9BiHKNRrNrzZo1DcXFxbns832LgftDrj+iF3vrN5j5dwDAPt+DRWbz+wCW+5idid3dexsAT2JiYgGkvB7+BNrBgLzD7fG81UcuVJTd0ucLN0JpPo3GWWQ2uyr37p1LQfx9CLidma8dBLgQmMNtsohuAlKISRQ6DQa0UoYCl83wJwIPqRbpNhh2Wc3mHSCaHUR562EhfgIpw/WxMcyhelKEA8sxiO20G+G8hZlftJrN1wDIlcBsOnovLCNgPRNN+0aAiwq8RsADEXxREgHcEG4RBahOCNE/wVJEfwXyZ7IPRt1MdBExjwuzSI4a8OLi4jTp82Uf1lkSLSZgMZiher2wms2IsKEBYKXdbn/n8CZSlGm9vj+Zge8C+K5ChG6DAYn+0zDSyfb7/taLsrKypiKzuZLDJ0rKCZUACsDT5Q7HI1az+bcD3WRFRUXjWFWTwsxLRHAJOzeATGltrQrB0awiop9HaD4LQFaISPqf6TyeXR5N2G3QGEaEmR4mN9DucN7IYWg9wvks+Q/Oc0Ksja3auLgrvD09/3cicC7DIhY5HI4Dwq+pHipJJrquPxfh9SfF7hxEe+0SuMBut5cRUVyYDXuUNUX09MQN8VsOSH8mOO61ifRDbPMTn5R/DyECvDfINp+LT0j4ea+FG+oAaQ0uGcjCsFgohC2KPmSH0+d9tHOnOyhHo9e/H06kiSBq/drmcDzHCQm+CDcG9SspKSxMBPPYMM/ZBtUvokHNIwGbhVZ7xqpVq5oRJiE8iFq/VuACAHHd3beBeesQmmhnokvtdvtb/S+4XK4uZn52gO1tl8DJDofjs8BiGtC3rl63rhZA7SC/pUYC5/QvhSGBdYMWPYHPut3uS0IFnEngCT8GRE0+AHfZHI4f9UqjIMKwuDQIfctBm822OYpvSwizGUIeKqtXr24nov8b4FB6mOg6u9P5p8C68EUQ2YKykl0JCdMQLrE6Uelg5tlgMHw2iH30rkavP7msrKw68G4lDOjR1w5cSisqOnzMZ/PANxAT8BaEMAYDliM9Fb9HdJ6FHiJ6OL6ry+hwONYfnmshRJjFTUGZAeYfI7LPSX960yfl7N7v7sXhOZj5oQG2101Ed+ePH39WOH+eQBrMaK1jdpJyoc3h+DP6Ou0pgwC9GWGu3YtIqQH8p7UuzGYIbxFS1fsIiE63wbwRQsy32+2H88om19VFsuQFlXtIyrAF65nojUHto9JSnyC6DtFlIjzARD+2ORwX9QmxCX+Qfv3AJcBhVCoazQJmvhmRTV67ATwOIczlDse3I1UQtNvtjYqUZyB0jt06AH9jomnldvvN/b1JWcpgtn1fYGE+HaxBm9P5ofRvnufhT0kYUi5n4D8kpdHmcFwSLiud3em8Bcxnwh+jFI7T2EFEf1K02vHldvt9ocp59Omvw3E3gD8GuJJgnMpHxHyhzeEoKne5grHtwXQEtSB6VgqxK8SGLewrPWEPgJfAfGZ55KyA4QDEA8BOYYIdD3G1pNGcDaLXQwCBBPA5AVfYnM65NputT2xOQOSqD8J5dID5bSLaHoIz6a3MbYI/fOM5JroKQkwfSunUMofjSyb6NkLHnG0i4JfxXV2T7Xb7M/2/m5iDzWMniD6UwEfHClxGFMWKioqmSynnCuZRIIqXUrYIoFYwVwww3qJPn61WqxWqagSgZSHqmXmDw+EIm83caDSmKEQ/hN8VvhFAVWdn59ZofVCMRqNWA1hBNCGQC7abgAPEvKfM6dwQzQndnxYuXJjm7ekpZiFyAGQQcwMBB71SboiU+CocBar6nREoc9Ioifa53e7ySO7wVpPpUgYyBFGDJGpQVXVrpPSdZrN5DjP72K+3qh1MnpBik8kiiUwENKrAQSLabzAYQma9C/Pdk0lKf91u5mYw79HGxTkjBc5aTaZLWIhMkrKFiA5Kol12u31fuDm1WCwThBAcFxd3YLhqWR+l1ykpievp7DyDmScB8LIQ1Vqv17563bqaSHOiEC2SUh4URA0qsNvhcOwdzBqNUYxiFKMYxShGMYpRjGIUoxjFKEYxitGJRf8ftDBikOjydlUAAAAldEVYdGRhdGU6Y3JlYXRlADIwMTctMDgtMTBUMDA6NDg6NTErMDA6MDDcPoHvAAAAJXRFWHRkYXRlOm1vZGlmeQAyMDE3LTA4LTEwVDAwOjQ4OjUxKzAwOjAwrWM5UwAAAABJRU5ErkJggg==;" parent="e0zx1OXjUzG2xtG4G9Sb-516" vertex="1">
          <mxGeometry x="760" y="5.140000000000001" width="119" height="79.75" as="geometry" />
        </mxCell>
        <mxCell id="e0zx1OXjUzG2xtG4G9Sb-522" value="" style="edgeStyle=orthogonalEdgeStyle;fontSize=12;html=1;endArrow=blockThin;endFill=1;rounded=0;strokeWidth=5;endSize=4;startSize=4;dashed=1;strokeColor=#4284F3;exitX=1;exitY=0.5;exitDx=0;exitDy=0;exitPerimeter=0;entryX=0;entryY=0.5;entryDx=0;entryDy=0;" parent="1" source="e0zx1OXjUzG2xtG4G9Sb-209" target="e0zx1OXjUzG2xtG4G9Sb-514" edge="1">
          <mxGeometry width="100" relative="1" as="geometry">
            <mxPoint x="900" y="390" as="sourcePoint" />
            <mxPoint x="1000" y="390" as="targetPoint" />
            <Array as="points">
              <mxPoint x="300" y="195" />
              <mxPoint x="300" y="605" />
            </Array>
          </mxGeometry>
        </mxCell>
        <mxCell id="e0zx1OXjUzG2xtG4G9Sb-523" value="" style="edgeStyle=orthogonalEdgeStyle;fontSize=12;html=1;endArrow=blockThin;endFill=1;rounded=0;strokeWidth=5;endSize=4;startSize=4;dashed=1;strokeColor=#4284F3;entryX=0;entryY=0.5;entryDx=0;entryDy=0;exitX=1;exitY=0.5;exitDx=0;exitDy=0;" parent="1" source="e0zx1OXjUzG2xtG4G9Sb-514" edge="1">
          <mxGeometry width="100" relative="1" as="geometry">
            <mxPoint x="1440" y="710" as="sourcePoint" />
            <mxPoint x="1420" y="194.98000000000002" as="targetPoint" />
            <Array as="points">
              <mxPoint x="1370" y="605" />
              <mxPoint x="1370" y="195" />
            </Array>
          </mxGeometry>
        </mxCell>
        <mxCell id="CcuzoNxnnxqacmadoABp-9" value="" style="edgeStyle=orthogonalEdgeStyle;fontSize=12;html=1;endArrow=blockThin;endFill=1;strokeWidth=5;endSize=4;startSize=4;dashed=0;strokeColor=#4284F3;entryX=0;entryY=0.5;entryDx=0;entryDy=0;rounded=0;exitX=1;exitY=0.5;exitDx=0;exitDy=0;" parent="1" source="e0zx1OXjUzG2xtG4G9Sb-410" edge="1">
          <mxGeometry width="100" relative="1" as="geometry">
            <mxPoint x="1320" y="195" as="sourcePoint" />
            <mxPoint x="1420" y="194.98000000000002" as="targetPoint" />
          </mxGeometry>
        </mxCell>
        <mxCell id="e0zx1OXjUzG2xtG4G9Sb-434" value="" style="strokeColor=#dddddd;fillColor=#ffffff;shadow=1;strokeWidth=1;rounded=1;absoluteArcSize=1;arcSize=2;fontSize=10;fontColor=#9E9E9E;align=center;html=1;container=0;" parent="1" vertex="1">
          <mxGeometry x="1420" y="150" width="190" height="90" as="geometry" />
        </mxCell>
        <mxCell id="e0zx1OXjUzG2xtG4G9Sb-435" value="" style="shape=image;verticalLabelPosition=bottom;labelBackgroundColor=default;verticalAlign=top;aspect=fixed;imageAspect=0;image=https://upload.wikimedia.org/wikipedia/commons/thumb/4/4c/Looker.svg/2560px-Looker.svg.png;" parent="1" vertex="1">
          <mxGeometry x="1434.95" y="173.72000000000003" width="160.11" height="42.56" as="geometry" />
        </mxCell>
        <mxCell id="whYgnRyrsbjswguHOp5a-2" value="&lt;font style=&quot;font-size: 34px;&quot;&gt;Next&amp;nbsp; &amp;nbsp; &amp;nbsp;project&lt;/font&gt;" style="text;html=1;align=center;verticalAlign=middle;resizable=0;points=[];autosize=1;strokeColor=none;fillColor=none;fontSize=34;fontColor=#4285F4;" parent="1" vertex="1">
          <mxGeometry x="731" y="439" width="240" height="50" as="geometry" />
        </mxCell>
      </root>
    </mxGraphModel>
  </diagram>
</mxfile>
